<mxfile host="65bd71144e">
    <diagram id="R2lEEEUBdFMjLlhIrx00" name="Page-1">
        <mxGraphModel dx="463" dy="448" grid="1" gridSize="10" guides="1" tooltips="1" connect="1" arrows="1" fold="1" page="1" pageScale="1" pageWidth="850" pageHeight="1100" math="0" shadow="0" extFonts="Permanent Marker^https://fonts.googleapis.com/css?family=Permanent+Marker">
            <root>
                <mxCell id="0"/>
                <mxCell id="1" parent="0"/>
                <mxCell id="C-vyLk0tnHw3VtMMgP7b-1" value="" style="edgeStyle=entityRelationEdgeStyle;endArrow=ERmany;startArrow=ERone;endFill=0;startFill=0;" parent="1" source="C-vyLk0tnHw3VtMMgP7b-24" target="C-vyLk0tnHw3VtMMgP7b-6" edge="1">
                    <mxGeometry width="100" height="100" relative="1" as="geometry">
                        <mxPoint x="340" y="720" as="sourcePoint"/>
                        <mxPoint x="440" y="620" as="targetPoint"/>
                    </mxGeometry>
                </mxCell>
                <mxCell id="C-vyLk0tnHw3VtMMgP7b-12" value="" style="edgeStyle=entityRelationEdgeStyle;endArrow=ERone;startArrow=ERmany;endFill=0;startFill=0;exitX=1;exitY=0.5;exitDx=0;exitDy=0;entryX=0;entryY=0.5;entryDx=0;entryDy=0;" parent="1" source="C-vyLk0tnHw3VtMMgP7b-9" target="C-vyLk0tnHw3VtMMgP7b-14" edge="1">
                    <mxGeometry width="100" height="100" relative="1" as="geometry">
                        <mxPoint x="400" y="180" as="sourcePoint"/>
                        <mxPoint x="460" y="205" as="targetPoint"/>
                    </mxGeometry>
                </mxCell>
                <mxCell id="C-vyLk0tnHw3VtMMgP7b-2" value="DetailCommande" style="shape=table;startSize=30;container=1;collapsible=1;childLayout=tableLayout;fixedRows=1;rowLines=0;fontStyle=1;align=center;resizeLast=1;" parent="1" vertex="1">
                    <mxGeometry x="430" y="120" width="250" height="130" as="geometry"/>
                </mxCell>
                <mxCell id="C-vyLk0tnHw3VtMMgP7b-3" value="" style="shape=partialRectangle;collapsible=0;dropTarget=0;pointerEvents=0;fillColor=none;points=[[0,0.5],[1,0.5]];portConstraint=eastwest;top=0;left=0;right=0;bottom=1;" parent="C-vyLk0tnHw3VtMMgP7b-2" vertex="1">
                    <mxGeometry y="30" width="250" height="30" as="geometry"/>
                </mxCell>
                <mxCell id="C-vyLk0tnHw3VtMMgP7b-4" value="PK" style="shape=partialRectangle;overflow=hidden;connectable=0;fillColor=none;top=0;left=0;bottom=0;right=0;fontStyle=1;" parent="C-vyLk0tnHw3VtMMgP7b-3" vertex="1">
                    <mxGeometry width="30" height="30" as="geometry">
                        <mxRectangle width="30" height="30" as="alternateBounds"/>
                    </mxGeometry>
                </mxCell>
                <mxCell id="C-vyLk0tnHw3VtMMgP7b-5" value="id int NOT NULL " style="shape=partialRectangle;overflow=hidden;connectable=0;fillColor=none;top=0;left=0;bottom=0;right=0;align=left;spacingLeft=6;fontStyle=5;" parent="C-vyLk0tnHw3VtMMgP7b-3" vertex="1">
                    <mxGeometry x="30" width="220" height="30" as="geometry">
                        <mxRectangle width="220" height="30" as="alternateBounds"/>
                    </mxGeometry>
                </mxCell>
                <mxCell id="C-vyLk0tnHw3VtMMgP7b-6" value="" style="shape=partialRectangle;collapsible=0;dropTarget=0;pointerEvents=0;fillColor=none;points=[[0,0.5],[1,0.5]];portConstraint=eastwest;top=0;left=0;right=0;bottom=0;" parent="C-vyLk0tnHw3VtMMgP7b-2" vertex="1">
                    <mxGeometry y="60" width="250" height="30" as="geometry"/>
                </mxCell>
                <mxCell id="C-vyLk0tnHw3VtMMgP7b-7" value="FK1" style="shape=partialRectangle;overflow=hidden;connectable=0;fillColor=none;top=0;left=0;bottom=0;right=0;" parent="C-vyLk0tnHw3VtMMgP7b-6" vertex="1">
                    <mxGeometry width="30" height="30" as="geometry">
                        <mxRectangle width="30" height="30" as="alternateBounds"/>
                    </mxGeometry>
                </mxCell>
                <mxCell id="C-vyLk0tnHw3VtMMgP7b-8" value="produit_id int NOT NULL" style="shape=partialRectangle;overflow=hidden;connectable=0;fillColor=none;top=0;left=0;bottom=0;right=0;align=left;spacingLeft=6;" parent="C-vyLk0tnHw3VtMMgP7b-6" vertex="1">
                    <mxGeometry x="30" width="220" height="30" as="geometry">
                        <mxRectangle width="220" height="30" as="alternateBounds"/>
                    </mxGeometry>
                </mxCell>
                <mxCell id="C-vyLk0tnHw3VtMMgP7b-9" value="" style="shape=partialRectangle;collapsible=0;dropTarget=0;pointerEvents=0;fillColor=none;points=[[0,0.5],[1,0.5]];portConstraint=eastwest;top=0;left=0;right=0;bottom=0;" parent="C-vyLk0tnHw3VtMMgP7b-2" vertex="1">
                    <mxGeometry y="90" width="250" height="30" as="geometry"/>
                </mxCell>
                <mxCell id="C-vyLk0tnHw3VtMMgP7b-10" value="" style="shape=partialRectangle;overflow=hidden;connectable=0;fillColor=none;top=0;left=0;bottom=0;right=0;" parent="C-vyLk0tnHw3VtMMgP7b-9" vertex="1">
                    <mxGeometry width="30" height="30" as="geometry">
                        <mxRectangle width="30" height="30" as="alternateBounds"/>
                    </mxGeometry>
                </mxCell>
                <mxCell id="C-vyLk0tnHw3VtMMgP7b-11" value="commande_id int NOT NULL" style="shape=partialRectangle;overflow=hidden;connectable=0;fillColor=none;top=0;left=0;bottom=0;right=0;align=left;spacingLeft=6;" parent="C-vyLk0tnHw3VtMMgP7b-9" vertex="1">
                    <mxGeometry x="30" width="220" height="30" as="geometry">
                        <mxRectangle width="220" height="30" as="alternateBounds"/>
                    </mxGeometry>
                </mxCell>
                <mxCell id="C-vyLk0tnHw3VtMMgP7b-13" value="Commande" style="shape=table;startSize=30;container=1;collapsible=1;childLayout=tableLayout;fixedRows=1;rowLines=0;fontStyle=1;align=center;resizeLast=1;" parent="1" vertex="1">
                    <mxGeometry x="760" y="120" width="250" height="190" as="geometry">
                        <mxRectangle x="760" y="120" width="100" height="30" as="alternateBounds"/>
                    </mxGeometry>
                </mxCell>
                <mxCell id="C-vyLk0tnHw3VtMMgP7b-14" value="" style="shape=partialRectangle;collapsible=0;dropTarget=0;pointerEvents=0;fillColor=none;points=[[0,0.5],[1,0.5]];portConstraint=eastwest;top=0;left=0;right=0;bottom=1;" parent="C-vyLk0tnHw3VtMMgP7b-13" vertex="1">
                    <mxGeometry y="30" width="250" height="30" as="geometry"/>
                </mxCell>
                <mxCell id="C-vyLk0tnHw3VtMMgP7b-15" value="PK" style="shape=partialRectangle;overflow=hidden;connectable=0;fillColor=none;top=0;left=0;bottom=0;right=0;fontStyle=1;" parent="C-vyLk0tnHw3VtMMgP7b-14" vertex="1">
                    <mxGeometry width="30" height="30" as="geometry">
                        <mxRectangle width="30" height="30" as="alternateBounds"/>
                    </mxGeometry>
                </mxCell>
                <mxCell id="C-vyLk0tnHw3VtMMgP7b-16" value="id int NOT NULL " style="shape=partialRectangle;overflow=hidden;connectable=0;fillColor=none;top=0;left=0;bottom=0;right=0;align=left;spacingLeft=6;fontStyle=5;" parent="C-vyLk0tnHw3VtMMgP7b-14" vertex="1">
                    <mxGeometry x="30" width="220" height="30" as="geometry">
                        <mxRectangle width="220" height="30" as="alternateBounds"/>
                    </mxGeometry>
                </mxCell>
                <mxCell id="C-vyLk0tnHw3VtMMgP7b-17" value="" style="shape=partialRectangle;collapsible=0;dropTarget=0;pointerEvents=0;fillColor=none;points=[[0,0.5],[1,0.5]];portConstraint=eastwest;top=0;left=0;right=0;bottom=0;" parent="C-vyLk0tnHw3VtMMgP7b-13" vertex="1">
                    <mxGeometry y="60" width="250" height="30" as="geometry"/>
                </mxCell>
                <mxCell id="C-vyLk0tnHw3VtMMgP7b-18" value="" style="shape=partialRectangle;overflow=hidden;connectable=0;fillColor=none;top=0;left=0;bottom=0;right=0;" parent="C-vyLk0tnHw3VtMMgP7b-17" vertex="1">
                    <mxGeometry width="30" height="30" as="geometry">
                        <mxRectangle width="30" height="30" as="alternateBounds"/>
                    </mxGeometry>
                </mxCell>
                <mxCell id="C-vyLk0tnHw3VtMMgP7b-19" value="adresse string NOT NULL" style="shape=partialRectangle;overflow=hidden;connectable=0;fillColor=none;top=0;left=0;bottom=0;right=0;align=left;spacingLeft=6;" parent="C-vyLk0tnHw3VtMMgP7b-17" vertex="1">
                    <mxGeometry x="30" width="220" height="30" as="geometry">
                        <mxRectangle width="220" height="30" as="alternateBounds"/>
                    </mxGeometry>
                </mxCell>
                <mxCell id="C-vyLk0tnHw3VtMMgP7b-20" value="" style="shape=partialRectangle;collapsible=0;dropTarget=0;pointerEvents=0;fillColor=none;points=[[0,0.5],[1,0.5]];portConstraint=eastwest;top=0;left=0;right=0;bottom=0;" parent="C-vyLk0tnHw3VtMMgP7b-13" vertex="1">
                    <mxGeometry y="90" width="250" height="30" as="geometry"/>
                </mxCell>
                <mxCell id="C-vyLk0tnHw3VtMMgP7b-21" value="" style="shape=partialRectangle;overflow=hidden;connectable=0;fillColor=none;top=0;left=0;bottom=0;right=0;" parent="C-vyLk0tnHw3VtMMgP7b-20" vertex="1">
                    <mxGeometry width="30" height="30" as="geometry">
                        <mxRectangle width="30" height="30" as="alternateBounds"/>
                    </mxGeometry>
                </mxCell>
                <mxCell id="C-vyLk0tnHw3VtMMgP7b-22" value="tel string NOT NULL" style="shape=partialRectangle;overflow=hidden;connectable=0;fillColor=none;top=0;left=0;bottom=0;right=0;align=left;spacingLeft=6;" parent="C-vyLk0tnHw3VtMMgP7b-20" vertex="1">
                    <mxGeometry x="30" width="220" height="30" as="geometry">
                        <mxRectangle width="220" height="30" as="alternateBounds"/>
                    </mxGeometry>
                </mxCell>
                <mxCell id="6fLWlz1K73UYWE2r200s-59" style="shape=partialRectangle;collapsible=0;dropTarget=0;pointerEvents=0;fillColor=none;points=[[0,0.5],[1,0.5]];portConstraint=eastwest;top=0;left=0;right=0;bottom=0;" parent="C-vyLk0tnHw3VtMMgP7b-13" vertex="1">
                    <mxGeometry y="120" width="250" height="30" as="geometry"/>
                </mxCell>
                <mxCell id="6fLWlz1K73UYWE2r200s-60" style="shape=partialRectangle;overflow=hidden;connectable=0;fillColor=none;top=0;left=0;bottom=0;right=0;" parent="6fLWlz1K73UYWE2r200s-59" vertex="1">
                    <mxGeometry width="30" height="30" as="geometry">
                        <mxRectangle width="30" height="30" as="alternateBounds"/>
                    </mxGeometry>
                </mxCell>
                <mxCell id="6fLWlz1K73UYWE2r200s-61" value="etat enum NOT NULL" style="shape=partialRectangle;overflow=hidden;connectable=0;fillColor=none;top=0;left=0;bottom=0;right=0;align=left;spacingLeft=6;" parent="6fLWlz1K73UYWE2r200s-59" vertex="1">
                    <mxGeometry x="30" width="220" height="30" as="geometry">
                        <mxRectangle width="220" height="30" as="alternateBounds"/>
                    </mxGeometry>
                </mxCell>
                <mxCell id="6fLWlz1K73UYWE2r200s-90" style="shape=partialRectangle;collapsible=0;dropTarget=0;pointerEvents=0;fillColor=none;points=[[0,0.5],[1,0.5]];portConstraint=eastwest;top=0;left=0;right=0;bottom=0;" parent="C-vyLk0tnHw3VtMMgP7b-13" vertex="1">
                    <mxGeometry y="150" width="250" height="30" as="geometry"/>
                </mxCell>
                <mxCell id="6fLWlz1K73UYWE2r200s-91" style="shape=partialRectangle;overflow=hidden;connectable=0;fillColor=none;top=0;left=0;bottom=0;right=0;" parent="6fLWlz1K73UYWE2r200s-90" vertex="1">
                    <mxGeometry width="30" height="30" as="geometry">
                        <mxRectangle width="30" height="30" as="alternateBounds"/>
                    </mxGeometry>
                </mxCell>
                <mxCell id="6fLWlz1K73UYWE2r200s-92" value="QG_id int NOT NULL" style="shape=partialRectangle;overflow=hidden;connectable=0;fillColor=none;top=0;left=0;bottom=0;right=0;align=left;spacingLeft=6;" parent="6fLWlz1K73UYWE2r200s-90" vertex="1">
                    <mxGeometry x="30" width="220" height="30" as="geometry">
                        <mxRectangle width="220" height="30" as="alternateBounds"/>
                    </mxGeometry>
                </mxCell>
                <mxCell id="C-vyLk0tnHw3VtMMgP7b-23" value="Produit" style="shape=table;startSize=30;container=1;collapsible=1;childLayout=tableLayout;fixedRows=1;rowLines=0;fontStyle=1;align=center;resizeLast=1;" parent="1" vertex="1">
                    <mxGeometry x="110" y="120" width="250" height="250" as="geometry"/>
                </mxCell>
                <mxCell id="C-vyLk0tnHw3VtMMgP7b-24" value="" style="shape=partialRectangle;collapsible=0;dropTarget=0;pointerEvents=0;fillColor=none;points=[[0,0.5],[1,0.5]];portConstraint=eastwest;top=0;left=0;right=0;bottom=1;" parent="C-vyLk0tnHw3VtMMgP7b-23" vertex="1">
                    <mxGeometry y="30" width="250" height="30" as="geometry"/>
                </mxCell>
                <mxCell id="C-vyLk0tnHw3VtMMgP7b-25" value="PK" style="shape=partialRectangle;overflow=hidden;connectable=0;fillColor=none;top=0;left=0;bottom=0;right=0;fontStyle=1;" parent="C-vyLk0tnHw3VtMMgP7b-24" vertex="1">
                    <mxGeometry width="30" height="30" as="geometry">
                        <mxRectangle width="30" height="30" as="alternateBounds"/>
                    </mxGeometry>
                </mxCell>
                <mxCell id="C-vyLk0tnHw3VtMMgP7b-26" value="id int NOT NULL" style="shape=partialRectangle;overflow=hidden;connectable=0;fillColor=none;top=0;left=0;bottom=0;right=0;align=left;spacingLeft=6;fontStyle=5;" parent="C-vyLk0tnHw3VtMMgP7b-24" vertex="1">
                    <mxGeometry x="30" width="220" height="30" as="geometry">
                        <mxRectangle width="220" height="30" as="alternateBounds"/>
                    </mxGeometry>
                </mxCell>
                <mxCell id="C-vyLk0tnHw3VtMMgP7b-27" value="" style="shape=partialRectangle;collapsible=0;dropTarget=0;pointerEvents=0;fillColor=none;points=[[0,0.5],[1,0.5]];portConstraint=eastwest;top=0;left=0;right=0;bottom=0;" parent="C-vyLk0tnHw3VtMMgP7b-23" vertex="1">
                    <mxGeometry y="60" width="250" height="30" as="geometry"/>
                </mxCell>
                <mxCell id="C-vyLk0tnHw3VtMMgP7b-28" value="" style="shape=partialRectangle;overflow=hidden;connectable=0;fillColor=none;top=0;left=0;bottom=0;right=0;" parent="C-vyLk0tnHw3VtMMgP7b-27" vertex="1">
                    <mxGeometry width="30" height="30" as="geometry">
                        <mxRectangle width="30" height="30" as="alternateBounds"/>
                    </mxGeometry>
                </mxCell>
                <mxCell id="C-vyLk0tnHw3VtMMgP7b-29" value="customer_name char(50) NOT NULL" style="shape=partialRectangle;overflow=hidden;connectable=0;fillColor=none;top=0;left=0;bottom=0;right=0;align=left;spacingLeft=6;" parent="C-vyLk0tnHw3VtMMgP7b-27" vertex="1">
                    <mxGeometry x="30" width="220" height="30" as="geometry">
                        <mxRectangle width="220" height="30" as="alternateBounds"/>
                    </mxGeometry>
                </mxCell>
                <mxCell id="7" style="shape=partialRectangle;collapsible=0;dropTarget=0;pointerEvents=0;fillColor=none;points=[[0,0.5],[1,0.5]];portConstraint=eastwest;top=0;left=0;right=0;bottom=0;" vertex="1" parent="C-vyLk0tnHw3VtMMgP7b-23">
                    <mxGeometry y="90" width="250" height="30" as="geometry"/>
                </mxCell>
                <mxCell id="8" style="shape=partialRectangle;overflow=hidden;connectable=0;fillColor=none;top=0;left=0;bottom=0;right=0;" vertex="1" parent="7">
                    <mxGeometry width="30" height="30" as="geometry">
                        <mxRectangle width="30" height="30" as="alternateBounds"/>
                    </mxGeometry>
                </mxCell>
                <mxCell id="9" value="type enum NOT NULL" style="shape=partialRectangle;overflow=hidden;connectable=0;fillColor=none;top=0;left=0;bottom=0;right=0;align=left;spacingLeft=6;" vertex="1" parent="7">
                    <mxGeometry x="30" width="220" height="30" as="geometry">
                        <mxRectangle width="220" height="30" as="alternateBounds"/>
                    </mxGeometry>
                </mxCell>
                <mxCell id="4" style="shape=partialRectangle;collapsible=0;dropTarget=0;pointerEvents=0;fillColor=none;points=[[0,0.5],[1,0.5]];portConstraint=eastwest;top=0;left=0;right=0;bottom=0;" vertex="1" parent="C-vyLk0tnHw3VtMMgP7b-23">
                    <mxGeometry y="120" width="250" height="30" as="geometry"/>
                </mxCell>
                <mxCell id="5" style="shape=partialRectangle;overflow=hidden;connectable=0;fillColor=none;top=0;left=0;bottom=0;right=0;" vertex="1" parent="4">
                    <mxGeometry width="30" height="30" as="geometry">
                        <mxRectangle width="30" height="30" as="alternateBounds"/>
                    </mxGeometry>
                </mxCell>
                <mxCell id="6" value="description string NOT NULL" style="shape=partialRectangle;overflow=hidden;connectable=0;fillColor=none;top=0;left=0;bottom=0;right=0;align=left;spacingLeft=6;" vertex="1" parent="4">
                    <mxGeometry x="30" width="220" height="30" as="geometry">
                        <mxRectangle width="220" height="30" as="alternateBounds"/>
                    </mxGeometry>
                </mxCell>
                <mxCell id="10" style="shape=partialRectangle;collapsible=0;dropTarget=0;pointerEvents=0;fillColor=none;points=[[0,0.5],[1,0.5]];portConstraint=eastwest;top=0;left=0;right=0;bottom=0;" vertex="1" parent="C-vyLk0tnHw3VtMMgP7b-23">
                    <mxGeometry y="150" width="250" height="30" as="geometry"/>
                </mxCell>
                <mxCell id="11" style="shape=partialRectangle;overflow=hidden;connectable=0;fillColor=none;top=0;left=0;bottom=0;right=0;" vertex="1" parent="10">
                    <mxGeometry width="30" height="30" as="geometry">
                        <mxRectangle width="30" height="30" as="alternateBounds"/>
                    </mxGeometry>
                </mxCell>
                <mxCell id="12" value="prix int" style="shape=partialRectangle;overflow=hidden;connectable=0;fillColor=none;top=0;left=0;bottom=0;right=0;align=left;spacingLeft=6;" vertex="1" parent="10">
                    <mxGeometry x="30" width="220" height="30" as="geometry">
                        <mxRectangle width="220" height="30" as="alternateBounds"/>
                    </mxGeometry>
                </mxCell>
                <mxCell id="16" style="shape=partialRectangle;collapsible=0;dropTarget=0;pointerEvents=0;fillColor=none;points=[[0,0.5],[1,0.5]];portConstraint=eastwest;top=0;left=0;right=0;bottom=0;" vertex="1" parent="C-vyLk0tnHw3VtMMgP7b-23">
                    <mxGeometry y="180" width="250" height="30" as="geometry"/>
                </mxCell>
                <mxCell id="17" style="shape=partialRectangle;overflow=hidden;connectable=0;fillColor=none;top=0;left=0;bottom=0;right=0;" vertex="1" parent="16">
                    <mxGeometry width="30" height="30" as="geometry">
                        <mxRectangle width="30" height="30" as="alternateBounds"/>
                    </mxGeometry>
                </mxCell>
                <mxCell id="18" value="ingredients" style="shape=partialRectangle;overflow=hidden;connectable=0;fillColor=none;top=0;left=0;bottom=0;right=0;align=left;spacingLeft=6;" vertex="1" parent="16">
                    <mxGeometry x="30" width="220" height="30" as="geometry">
                        <mxRectangle width="220" height="30" as="alternateBounds"/>
                    </mxGeometry>
                </mxCell>
                <mxCell id="13" style="shape=partialRectangle;collapsible=0;dropTarget=0;pointerEvents=0;fillColor=none;points=[[0,0.5],[1,0.5]];portConstraint=eastwest;top=0;left=0;right=0;bottom=0;" vertex="1" parent="C-vyLk0tnHw3VtMMgP7b-23">
                    <mxGeometry y="210" width="250" height="30" as="geometry"/>
                </mxCell>
                <mxCell id="14" style="shape=partialRectangle;overflow=hidden;connectable=0;fillColor=none;top=0;left=0;bottom=0;right=0;" vertex="1" parent="13">
                    <mxGeometry width="30" height="30" as="geometry">
                        <mxRectangle width="30" height="30" as="alternateBounds"/>
                    </mxGeometry>
                </mxCell>
                <mxCell id="15" value="vegan bool" style="shape=partialRectangle;overflow=hidden;connectable=0;fillColor=none;top=0;left=0;bottom=0;right=0;align=left;spacingLeft=6;" vertex="1" parent="13">
                    <mxGeometry x="30" width="220" height="30" as="geometry">
                        <mxRectangle width="220" height="30" as="alternateBounds"/>
                    </mxGeometry>
                </mxCell>
                <mxCell id="5b2KFLONFS4cXGTmhPG7-1" value="" style="shape=image;verticalLabelPosition=bottom;labelBackgroundColor=default;verticalAlign=top;aspect=fixed;imageAspect=0;image=data:image/png,iVBORw0KGgoAAAANSUhEUgAAAXYAAAB0CAYAAACR4RnaAAAMbGlDQ1BJQ0MgUHJvZmlsZQAASImVVwdYU8kWnltSSWgBBKSE3gSRGkBKCC2A9CLYCEkgocSYEFTsZVHBtYsI2NBVEcW2AmLHriyKvS8WVJR1URcbKm9CArruK9873zf3/jlz5j/lzuTeA4DWB55UmodqA5AvKZAlhAczR6elM0lPAQLIQAe4AW0eXy5lx8VFAygD97/LuxvQGspVZyXXP+f/q+gKhHI+AMhYiDMFcn4+xMcBwKv4UlkBAESl3mpygVSJZ0OsJ4MBQrxKibNVeLsSZ6rw4X6bpAQOxJcBINN4PFk2AJr3oJ5ZyM+GPJqfIXaVCMQSALSGQRzAF/EEECtjH5afP1GJyyG2h/ZSiGE8gJX5HWf23/gzB/l5vOxBrMqrX8ghYrk0jzf1/yzN/5b8PMWAD1s4aCJZRIIyf1jDW7kTo5SYBnGXJDMmVllriD+IBaq6A4BSRYqIZJU9asKXc2D9gAHErgJeSBTEJhCHSfJiotX6zCxxGBdiuFvQKeICbhLEhhAvFMpDE9U2G2UTE9S+0PosGYet1p/jyfr9Kn09UOQms9X8b0RCrpof0ywSJaVCTIXYulCcEgOxJsQu8tzEKLXNyCIRJ2bARqZIUMZvDXGCUBIerOLHCrNkYQlq+5J8+UC+2EaRmBujxvsKREkRqvpgp/i8/vhhLthloYSdPMAjlI+OHshFIAwJVeWOPRdKkhPVPB+kBcEJqrU4VZoXp7bHLYV54Uq9JcQe8sJE9Vo8pQBuThU/niUtiEtSxYkX5fAi41Tx4MtANOCAEMAECjgywUSQA8StXQ1d8JdqJgzwgAxkAyFwVmsGVqT2z0jgNREUgT8gEgL54Lrg/lkhKIT6L4Na1dUZZPXPFvavyAVPIc4HUSAP/lb0r5IMeksBT6BG/A/vPDj4MN48OJTz/14/oP2mYUNNtFqjGPDI1BqwJIYSQ4gRxDCiA26MB+B+eDS8BsHhhrNwn4E8vtkTnhLaCI8I1wnthNsTxHNlP0Q5CrRD/jB1LTK/rwVuCzk98WDcH7JDZtwANwbOuAf0w8YDoWdPqOWo41ZWhfkD998y+O5pqO0orhSUMoQSRLH/caWmo6bnIIuy1t/XRxVr5mC9OYMzP/rnfFd9AbxH/WiJLcT2Y2exE9h57DDWAJjYMawRa8GOKPHg7nrSv7sGvCX0x5MLecT/8MdT+1RWUu5a69rp+lk1VyCcUqA8eJyJ0qkycbaogMmGbwchkyvhuwxjurm6uQGgfNeo/r7exve/QxCDlm+6eb8D4H+sr6/v0Ddd5DEA9nrD43/wm86eBYCOBgDnDvIVskKVDldeCPBfQgueNCNgBqyAPczHDXgBPxAEQkEkiAVJIA2Mh1UWwX0uA5PBdDAHFINSsAysBhVgA9gMtoNdYB9oAIfBCXAGXASXwXVwF+6eDvASdIN3oBdBEBJCRxiIEWKO2CBOiBvCQgKQUCQaSUDSkAwkG5EgCmQ6Mg8pRVYgFcgmpAbZixxETiDnkTbkNvIQ6UTeIJ9QDKWheqgpaosOR1koG41Ck9BxaDY6CS1C56NL0HK0Gt2J1qMn0IvodbQdfYn2YADTwAwwC8wZY2EcLBZLx7IwGTYTK8HKsGqsDmuCz/kq1o51YR9xIs7Ambgz3MEReDLOxyfhM/HFeAW+Ha/HT+FX8Yd4N/6VQCeYEJwIvgQuYTQhmzCZUEwoI2wlHCCchmepg/COSCQaEO2I3vAsphFziNOIi4nriLuJx4ltxMfEHhKJZERyIvmTYkk8UgGpmLSWtJN0jHSF1EH6QNYgm5PdyGHkdLKEPJdcRt5BPkq+Qn5G7qVoU2wovpRYioAylbKUsoXSRLlE6aD0UnWodlR/ahI1hzqHWk6to56m3qO+1dDQsNTw0YjXEGvM1ijX2KNxTuOhxkeaLs2RxqGNpSloS2jbaMdpt2lv6XS6LT2Ink4voC+h19BP0h/QP2gyNF00uZoCzVmalZr1mlc0X2lRtGy02FrjtYq0yrT2a13S6tKmaNtqc7R52jO1K7UPat/U7tFh6IzQidXJ11mss0PnvM5zXZKurW6orkB3vu5m3ZO6jxkYw4rBYfAZ8xhbGKcZHXpEPTs9rl6OXqneLr1WvW59XX0P/RT9KfqV+kf02w0wA1sDrkGewVKDfQY3DD4NMR3CHiIcsmhI3ZArQ94bDjUMMhQalhjuNrxu+MmIaRRqlGu03KjB6L4xbuxoHG882Xi98WnjrqF6Q/2G8oeWDN039I4JauJokmAyzWSzSYtJj6mZabip1HSt6UnTLjMDsyCzHLNVZkfNOs0Z5gHmYvNV5sfMXzD1mWxmHrOceYrZbWFiEWGhsNhk0WrRa2lnmWw513K35X0rqhXLKstqlVWzVbe1ufUo6+nWtdZ3bCg2LBuRzRqbszbvbe1sU20X2DbYPrcztOPaFdnV2t2zp9sH2k+yr7a/5kB0YDnkOqxzuOyIOno6ihwrHS85oU5eTmKndU5twwjDfIZJhlUPu+lMc2Y7FzrXOj90MXCJdpnr0uDyarj18PThy4efHf7V1dM1z3WL690RuiMiR8wd0TTijZujG9+t0u2aO909zH2We6P7aw8nD6HHeo9bngzPUZ4LPJs9v3h5e8m86rw6va29M7yrvG+y9FhxrMWscz4En2CfWT6HfT76evkW+O7z/dPP2S/Xb4ff85F2I4Ujt4x87G/pz/Pf5N8ewAzICNgY0B5oEcgLrA58FGQVJAjaGvSM7cDOYe9kvwp2DZYFHwh+z/HlzOAcD8FCwkNKQlpDdUOTQytCH4RZhmWH1YZ1h3uGTws/HkGIiIpYHnGTa8rlc2u43ZHekTMiT0XRohKjKqIeRTtGy6KbRqGjIketHHUvxiZGEtMQC2K5sStj78fZxU2KOxRPjI+Lr4x/mjAiYXrC2URG4oTEHYnvkoKTlibdTbZPViQ3p2iljE2pSXmfGpK6IrV99PDRM0ZfTDNOE6c1ppPSU9K3pveMCR2zekzHWM+xxWNvjLMbN2Xc+fHG4/PGH5mgNYE3YX8GISM1Y0fGZ14sr5rXk8nNrMrs5nP4a/gvBUGCVYJOob9whfBZln/Wiqzn2f7ZK7M7RYGiMlGXmCOuEL/OicjZkPM+NzZ3W25fXmre7nxyfkb+QYmuJFdyaqLZxCkT26RO0mJp+yTfSasndcuiZFvliHycvLFAD37UtyjsFT8pHhYGFFYWfpicMnn/FJ0pkiktUx2nLpr6rCis6Jdp+DT+tObpFtPnTH84gz1j00xkZubM5llWs+bP6pgdPnv7HOqc3Dm/zXWdu2LuX/NS5zXNN50/e/7jn8J/qi3WLJYV31zgt2DDQnyheGHrIvdFaxd9LRGUXCh1LS0r/byYv/jCzyN+Lv+5b0nWktalXkvXLyMukyy7sTxw+fYVOiuKVjxeOWpl/SrmqpJVf62esPp8mUfZhjXUNYo17eXR5Y1rrdcuW/u5QlRxvTK4cneVSdWiqvfrBOuurA9aX7fBdEPphk8bxRtvbQrfVF9tW122mbi5cPPTLSlbzv7C+qVmq/HW0q1ftkm2tW9P2H6qxrumZofJjqW1aK2itnPn2J2Xd4Xsaqxzrtu022B36R6wR7Hnxd6MvTf2Re1r3s/aX/erza9VBxgHSuqR+qn13Q2ihvbGtMa2g5EHm5v8mg4ccjm07bDF4coj+keWHqUenX+071jRsZ7j0uNdJ7JPPG6e0Hz35OiT107Fn2o9HXX63JmwMyfPss8eO+d/7vB53/MHL7AuNFz0uljf4tly4DfP3w60erXWX/K+1HjZ53JT28i2o1cCr5y4GnL1zDXutYvXY6633Ui+cevm2JvttwS3nt/Ou/36TuGd3ruz7xHuldzXvl/2wORB9e8Ov+9u92o/8jDkYcujxEd3H/Mfv3wif/K5Y/5T+tOyZ+bPap67PT/cGdZ5+cWYFx0vpS97u4r/0Pmj6pX9q1//DPqzpXt0d8dr2eu+N4vfGr3d9pfHX809cT0P3uW/631f8sHow/aPrI9nP6V+etY7+TPpc/kXhy9NX6O+3uvL7+uT8mS8/k8BDA40KwuAN9sAoKcBwIB9G3WMqhfsF0TVv/Yj8J+wql/sFy8A6uD3e3wX/Lq5CcCeLbD9gvxasFeNowOQ5ANQd/fBoRZ5lrubiosG+xTCg76+t7BnI60E4Muyvr7e6r6+L5thsLB3PC5R9aBKIcKeYWPol8z8TPBvRNWffpfjj3egjMAD/Hj/F4ZhkMGDoScZAAAAimVYSWZNTQAqAAAACAAEARoABQAAAAEAAAA+ARsABQAAAAEAAABGASgAAwAAAAEAAgAAh2kABAAAAAEAAABOAAAAAAAAAJAAAAABAAAAkAAAAAEAA5KGAAcAAAASAAAAeKACAAQAAAABAAABdqADAAQAAAABAAAAdAAAAABBU0NJSQAAAFNjcmVlbnNob3S2Xp+TAAAACXBIWXMAABYlAAAWJQFJUiTwAAAB1mlUWHRYTUw6Y29tLmFkb2JlLnhtcAAAAAAAPHg6eG1wbWV0YSB4bWxuczp4PSJhZG9iZTpuczptZXRhLyIgeDp4bXB0az0iWE1QIENvcmUgNi4wLjAiPgogICA8cmRmOlJERiB4bWxuczpyZGY9Imh0dHA6Ly93d3cudzMub3JnLzE5OTkvMDIvMjItcmRmLXN5bnRheC1ucyMiPgogICAgICA8cmRmOkRlc2NyaXB0aW9uIHJkZjphYm91dD0iIgogICAgICAgICAgICB4bWxuczpleGlmPSJodHRwOi8vbnMuYWRvYmUuY29tL2V4aWYvMS4wLyI+CiAgICAgICAgIDxleGlmOlBpeGVsWURpbWVuc2lvbj4xMTY8L2V4aWY6UGl4ZWxZRGltZW5zaW9uPgogICAgICAgICA8ZXhpZjpQaXhlbFhEaW1lbnNpb24+Mzc0PC9leGlmOlBpeGVsWERpbWVuc2lvbj4KICAgICAgICAgPGV4aWY6VXNlckNvbW1lbnQ+U2NyZWVuc2hvdDwvZXhpZjpVc2VyQ29tbWVudD4KICAgICAgPC9yZGY6RGVzY3JpcHRpb24+CiAgIDwvcmRmOlJERj4KPC94OnhtcG1ldGE+CifqvNYAAAAcaURPVAAAAAIAAAAAAAAAOgAAACgAAAA6AAAAOgAAOjv0/x79AAA6B0lEQVR4AexdBbxVxdZfdHcjqbSkIJIGUoKBXfDsRkGxg1IMwEB9KoqgiKJPBQywABEMwADpkhLphgvcy713vv+a2Wv2zNnnoPC9pw/f3j/ZK2fWzJrca+Zccyg8lORhZg6XD4YCQ3icKkdAGF0nhaAaKlJIJelMlqLgGvDxiAYYsf3Y/9KP4v4Xj794/nFnU2fGBJpDJvbI9OuOHH/O1VRE39MRIwIDoZACMeXLVBXJL7YfjlzPt4aI+MvTEb8KDIRCCoz9D8eYpSLiz7j/xf1PVg5vbBki0l88HRlgAgOhkAL/g+Mvh8pGD5ZtUIJ9JnlDnyOooC1PoOeCiCyBkUDqpJqXROCyYvux/+P+J4uPLEPuyDO4O2bCwRXqReQQaV4SgcuKx9/ROf7sjj159/CaGCqHWAFsHzJp7NuNn4hOyt2Qa4+VXdrFg4ySsCSNEeEd2480G1brFLuxRIe6tIvH/tceSOKSuP8Zp9h3PP7+kvGnJ3Z3VTYdk7ttMInrFrLNpPuzTO8h1+doJffFijxJp/i0ie2Hu4LY/7qzoL/E/U8PIT3I9Etvc5jnjzYj07reRshw9Fu7FK94/DlOCdG/4/xjduy6b5gOYlGut/Sg0AcpMU7Hj07iEYbvviNiazSH6ZoRBTd1ctxL4hFR/YiYGTn0K7YvrmC3xe3PXvhDj9enPCKaPCLWXU+/4v4Hd+mhyG6L+1+086TgeH0KRA6E2PljyXlMBzMMRz1gu1LWMXQKoeQKsUJrhXdjJJdkRxAik9wZooQpTBh2CmFs33gA7on9H/e/ePzJTBfMF5hU3F5hB4tdUViPn6Nv/sGOPRuld3bKUndTI/0WNzisw0K99I6vTCZGqt+eYmgiBTtU+B3MS88EP7aeRqrfnqJR43cKdqjwO5iXngl+jmL7Bw8epK1bt1JWViYVKVqUChcqTLly5TL1SvL+u9U/SRUPyYrrn9Dd2VtHcf8/ZGMnEf4V7R8ennrWE0onh23QSXYWkqDtkWG2yVZHRzVUdJgBGtvHQMBI+Av9v2fvXlq0cBFNnfYlrf/tN9q9ew9lZ2dRvrz5qHKVynTSSS2oVeuWVKRwEXuLilsvbNa4/aO7Q6erh45ymAEa9/+/vP//1ePvcO0nCcW4nYlxu7QGAgMO1Q/1aBbtpMmD1ACyUKSlpdGixYuoSaPGlDtPHggg1GmTZuBMGGLIgZy9PEmTR+2LuoWxfev/X3/9lWZMn04TJ02iGTNmUP58+aho8eJ0MCODNm3apCfyZs2aUdeuXenCCy6k4pDZHXzsf9ulQiTuf7pzwQ0y/kPfBFg8/uz4i/gGjKAHJRNpoQ3FaI0k2j4roIQpMJK9EYhYoFXzGIbgyePZYc9S3359qUiRIslVpTqSXqDVFsQIRCxQpJKNoR2pg4quzwooYQoUZQuNQMQCE8QB6UgdVHR9VkAJU6AoW2gEIhaYIA5IR+qgortj506aMH48vTpyJK1a+QvVP74BtWnTRu/S9+/bT8uWL6N58+bRqlWr9AT/4IMP0hlndKIyZcpRToRneF6PZOsxHMJBxb7PCihhChRlC41AxAITxAHpSB1UdH1WQAlToChbaAQiFpggDkhH6qCi67MCSpgCRdlCIxCxwARxQDpSBxVdnxVQwhQoyhYagYgFJogD0pE6qOj6rIASpkBRttAIRCwwQRyQjtRBRddnBZQwBYqyhUYgYoEJ4oB0pA4quj4roIQpUJQtxLehPTwVJYFWKYoYldSKUUkiJ6QFW75sOfW+ozeNGT2GSpQsETXqcEwaSekIAjQqSeSEtMUEERjN1nKMSmrFqCSRE9IWE0SgtRZFjEpqxYyDmbR/fxpCJdlmVrVTK9LoLZJJmzNnTiqE0EnuXDnD2dfNFrumz7+YjAV3GM39eS6de+65dPc991DFihUpV06esvEP+vylNWLECHrttdcob9689NLwl+n000+jQoUKUdreNNqzZzcW66KUmXmQ9qXtp/SMA5QzZy4qWLAAYvTFqUD+fJ79jIMZtHfPXkpL2wvdg5Qndy7Ki6+EYsWKUYECBWCWjwHdgvo+ikoSOSFtMUEE+ll6lFFJrRiVJHJC2mKCCPQs+oRRSa0YlSRyQtpiggj0TXqUUUmtGJUkckLaYoII9Cz6hFFJrRiVJHJC2mKCCPRNepRRSa0YlSRyQtpiggj0LPqEUUmtqCW4FMPQeSSBsIM9l3wziRgpHNShfK6TsUatVCOWouXLMbH3xsQ+5g0qUaJkkB8n+XPs68Lpl5SJIT9Hn/2VK1fRlMlTaMeOHab4piL6zZHunLpOOah4iWJ0zjndqGzZsp6G1PnAgQN0000309ixb1GH9h3p2eeeperVqts8xVOceM2a1fTIoEdpzBujqWfPW+n6666ncuXL0SSEb95991264IILaN26dTR5yhTE6hdgMi9I7TucTldccSXi8yeF9lU2LVy0mCZMGE8ffvghLV26DOUrQyc2a05XX3M1tWzRigoWwuSOx7UfUj43zNhgVqoRSzlqwmPIz9HX/raBTAW8t9TOOM9Sjo7w4vobpxyl7c9/UoBvxvzek1xDuAL9XLBjDBjZvgWwRSL2ly1brrp06aK279juZ2JzSMaWXAT6Oodj308ZpVJYCBRTSA+j/lGLPieFhaT2P//sM9WocSNVsmRJVapUKVW6VElVsnQpjZcqVVqVKglembKqabNmav68+cgjee4Ir6izzz5bValSRfXt10/hNoxfKJsuW+3YvkONHfu2KlqkiDoHaWbOmqm2bNminn76aVWsaBFV7djqqnTp0uq442qoxo0aqypVq6mixYqpdqe1UytWLFOZmVk6788+/0xdcOFFuuxly5ZT7du31/8qVKyoatWqpYYNG6b27t2bUO/k5f9fbX9ppLj+0i9+f/4Rn6WCkpMvF67ABOlfNP65FPpWjKzReoWyhEWc1Tw5Kpr6vAMLnECrLQqW4SMsXiE79jckFPM7iZwsRFPsCrQqomAZPuKJLWERXzkJJZpiV6BVFQXL8BFPbAmL+MpJKNEUuytXrqLpX02jXbi5wjvZHPjaMvfYzb6Ws8iJcAYmVn3gWap0ab0v1VlLZkg3c+YseuCBB2j7tm1040030Q033KBVEl+cJCM9nRYtWkKntTuFSpcqQ889O4xObN5ch2fuueseKlSkEPW69TZq2boVYcGh72fPprFvv00bN26kh/r2pcsuvZT2oLx9gY8fP47q1K2jd/7HHnus7lATPviA3n3vXapxXA3we1LHjh1tMaTIUn+BEQXL8BFJr7mWsIivnIQSTbEr0KqKgmX4iCe2hEV85SSUaIpdgVZVFCzDRzyxJSziKyehRFPsCrSqomAZPuKJLWERXzkJJZpiV6BVFQXL8BFPbAmL+MpJKNEUuwKtqihYho94YktYxFdOQomm2GXIf+TLe8za469AHs+uQl6yQxBhXhrDK+SEyZYtW6a6dO2qtm3nHbuvYaiA9x+yLyXxbAVMj3cU2E8/cEDvljds3KA2bFiPfww3qPUM1zNcrzChqq3YUSfuwt26Tpw4SbVq3Uq1bNVavfnWm8YbKeqflZ2l1v+2TpUoUUIVLFAAu/exavOWzWrIkMEqX758qnHjxmre/PnqwP4DunXnA+95yy2qQoUKqn///gq3otRX079SJ59yiqpZs4Z67LHHwNunbXKZFi5coM7o3FlVqVxZDRw4MGiZPwJMjVhTY3iFnGh6I/M1PF6K+kdzEk6Yl8bwCjmiE0Ij8zU8Xmw/dNYfwkJfagyvkBPNwMh8DY93lPg/vMeuVwKZ+3nGxz8OL4UIEx5lVwjw92K3tWvPTiwUwe/bOD0/2BkS4RCPM+P/wNe/dc0ZKARg9erV9OigR2jI0Cf1IVloiBWQ0Ae6aPqnVSJiOfI8UvtIjTzNXWvGxZ5F/kT7vKMtWKCgrra1rwvlU67/g7+IoLV2795Nv+GueQauI5pMEvwfNAQfdFarWs0cSOqUQSUZBzp5ymR6eOAAOpiZRbfcfAtd3v3y0C2sAh1uXk6lsrJpw6b11KB+Q/By0PCXhtMpp5xCr48eTYMGPUydOnWmV0a8ou+5c/YbN22kV199FTv75xBnv4L69etHY996E3H85wmhFjrt1NOoZauWtk34auVIHM7OnTuXenTvTq+88jLs4NaN2/7Akz9OvZIrBFxHz6IW0Tou5dbf9X/UhJsqKg05jp5FLRLbhwdcb8T+D8dfYv9LmNgTHAdHphwrgYvF0d/N/I6mTftK/uRK2Fehx1O9mVoMzmn4H8/tfCbLz/bt2/WB35lnn4WJJr9WkLxNKZgKHp0uyAu4Xjt4gDPOal6h/5h9nbPON8iPcZsVZ8hU8Gi9/4z9osWLUYcO7almjZqOfTHsQlO6sIyhDLthehthDvYpP8b/XN6gzJqZg8qWKk3X3XA9VapUSevxy81vybKl1Of2O3CVcbUOw/TqdZvVE03RT89IpwULFlL7dqdT7Tq16dFHH6WGDRsiFDOKhgweQhddcgk9/tijuClTWOexFeGd0aNeoyeGDKYePXrQgAED6HlM6iNGvopFaR3COaWpZKlSQVMa/+/Zu4fSD6TT2WedRUOfHIp+UtArr1O4CJroLU1L4R1tl+XijkqAGumhdcJUidqaTpLYZbl4mJNgRnpoHdFNbK2ATpLYZbl4mJNgRnpoHdGN7Sd6S9NJnOeyXDz0pGBGmkrHTuypFLhJwukgmDGtskVo+PDhhIMyWGUdTON6KxVMiBoEOOcGGT6CoIdrdsHQ5Ilhy+YtVKFCeVy/y6W5EGq5uceBPHkV4CTZmKqAKtgxeUnerM/44duXWnKubm5M/5n269WrS3f26YNfcbbmyuCRkoW+BstUM0S0prymYKf94EMP0W/r1uv0pkJSK+N/vupYuXJVeumlF6levXpJc9q/fz9df/11uPI4hS695CJM1o/hiiK+JJLY37Z1G33w4QfUq1dvOv/8c6n37bdTpWMqY2IfiUn4Seyy/0H9+/fDxI70KNC2bVshG02DBz+BiR2yAf31tcpRo0bp+D/H5ytXrqzLL/7PPJilzwoa4quAb9mY2zFcr8THFjBRAFpkAo2KT7nJDt//oQ03H8HFksDYPnvA94b4ykj+yPzjpjhUbqHMt+hTbm5HZ/tjYjd/K8ZWxdbQIlaUiPga4oBAyxOC4EkZ/8nnU5iXUVy+AtcdMSmMOYzDU88EuobpAEdm35bHZmoRK0pEfI3/Hvu8U1+xfAXtP7BfD5ic7Bu9KGJB5TUPFcmBzyXe8fJCIrtoXT9bKYPw4elI/DgJN1L0rvrUU0+1bhBVXqQRA6err72W5vw4R0/g3S/vjjvyhWgUwidPDR1C3XliR1iHQ0y8KJuJ/XU7sQ+A7J2336FhzwyjUqVL0a239aRzu51nbTGydu1aSschLW766ANYsW+U/nv8r8vjFQ7E7/R/Uwe8bTqLWFEi4mvE9Y/HP3+bB094fJB4YCB0wlWhMEHKUwhJKapCG+i+RUOpZcuWmuuO+vCUsw5TCRZqB1gKQSJbaAPdt5ujaBne0Ww/MytL4Q66wo5bH1bu03C/0vDAPoUJH/gBrZMFXamx7w3jj59++lFdevllqlix4urMM89UP835KTxwhUpmZqaaM2euuummm/Shably5dTnX3yhbfN1xyFDhqiy4N11Zx+FvzcDEybfLVu3qaFDhyrcoVd9+vTBFcY9avr06QpxeVW+fHl17333qqws1jUtgTCPuvTSS1WTE5qoxx9/HDKU22TlFlvjiWyhDXTfblLRMryjuf39moRucmueqBNqxfVnDxzt7a9DMbKL9tZ8ZztgUOftyPQWQ9O8HcdqYZcMXjnACHYqwTqSFLD9FStWUK/et9GbY97ED5Twy1MnL4M6b0dmbCBbE5s5YvsmubPmOzYcy6ZYjuzvbn/fvn004+tvaOSIl/WvUOsibHNK21PouJrHYvevaPXqVTTnpzn0M/6sQEZ6BkJAD9LFF19C5cqVNbvyUa/T0Kc4FNOdBvTvj/BJId0HtiHG/hp284MHD8ZuvgfhpgsOaTNo0COD8IOmf1HxYsXpwgsvpOb48dIW/CXJiR99SFO/nEYtWrakO3rfQW1Obo2uxp0NjaHb4//X/+L2ZzfG/d/ueZ0xblDn7cj+W/ufjbFHZlyv8Cx1GUEXcFk2A6d7WLlFgmwcOkjHoZjbEYp5YwzusSdM7EbFTfPvt2+LL4hrTvNcxv+Wff57Md99+w2NefMtmvnddwjrZONXqyX571FQFs4z+Gf++BETtWndhs47F79kLV+B8ubJQxx3f+311whXHnUcncMtBfGLUz7h3r59B40aNRKyofrwlGPshQoWolmzZtF7771PU3FOsBt/VqBq1SrEf1kyE39moHKVqnTxRRfh7n0X/CmCYkkOyrmhjqz/SbNb6Da3ZrqM/632Nz6J6x/uGo+C9ufPDrfh/OYLquIyEzu5lhkFfvMTbtrDhIIJNJrhewX+mNRtuIEx5o03qCRP7HisrkVE32Fo1ND85udI7Is1J+fYvvgSTuG/97IAfxNm5jff0irs0vdg0uXJG78OpWrVq1LNmrWoUePG+g+48Y+f+Nm/L41mzf6evpw6lZo2P5E6d+xEeXDFkqX78AfEZn8/CxP4l9T8xGa4DtkRsnyUgb/1vmzJEvoaC8mChQtp/959lC9fXqqJGH/9Bg2oYf36+k8V2FbWDWZajd/8xO1v/CB9minjoRCKRghDH4r/JI1NbJWtJMgwTMsqkt61JikE2qwsEuYh6a2uRUTZYWjU0PzmR9L/L9s3oRhxhuMv7SGJ0YCwIotojfCVyE9KCzOADuDDvt69emFXGOzYOec/0b7uDFI8qVVsH6PEDBNxDYdf+FB2J3bx+fPnp8KFC+s//BV2kMB5ksD6Eoi9i+o0PLK3qhbhple42niAdu7apReL/PgqyIWbPKGyZHwoe46OzlsMBNAH0bzj9o+0f+x/7sdOvxJUutYhaVHyO55wI779f/S/MBTjZCJlYyhGBboywUNZiIlMoJZExCHjF8TY77n3Xhrxygh85heXZH+afXcRscaBSAkFujLBQ1mIiUyglkTEDuMv9n9cf7RFsIhJmzGUFhLoygQPZSEmMoFaEhE7jLj9Y///G/tfOLFLD2To9DfNTqStblQQ5VjlEIGS///gJMLP3+n1116nW/H3RArxXWl3VUyZaVQQ5YRmLZbEvpUxkphJIm2Vo4IoxyqHCJQS6x8KgSVmkkhb5aggyrHKIQKl2L5zUBh6xmCJTkykrX5UEOVY5RCBUuz/2P/2oDbsGQZL7ESJtNWPCoTjT+zgepdYUuwikuVrMpRsAw0hNeQXz1moTsAXMfOz8ZN0/ik8//JSYrSpdpGsrx8nA4M6DFYQUkN+pbYfCP+y+sf2dePE/seGxu5p/sTxF/e/v1f/MxO7TIC6dc3LZzmUgzrqR4ZKXgKdXHyWQzmoo35kqOQl0MnFZzmUgzrqR4ZKXgKdXHyWQzmoo35kqOQl0MnFZzmUgzrqR4ZKXgKdXHyWQzmoo35kqOQl0MnFZzmUgzrqR4ZKXgKdXHyWQzmoo35kqOQl0MnFZzmUgzrqR4ZKXgKdXHyWQzmoo35kqOQl0MnFZzmUgzrqR4ZKXgKdXHyWQzmoox5B/R27FSdJnYSl1TXfEVrUIv7GObARSq1RB0kiTcKK7cMD2i+Ocyxqkdj/cBPvgkOP+LjuR97L1QwESVhaovmO0KIWsXZDTmzf9YXn+tCpPjtVAs13hBa1yP+k/zGx82/QEB4Jvv9Cd4R+FZ5AlgguMNROxFwNFxc93AmN7cf+j/ufHhDJR0jqhSmZvowsA10NFxetePz9HecfZ8ceNLoGbgdw+dwZXJl0jj8ObWogXjxf8tUKViu0Z1kW+eNGHU2bGkhs34nnxv5HL8HqojuI7SVx//P6BQ8k1zdMH95jUwOJx99/bvw5E7vfQLYBhJ3QEO65jtF1UgiqYfArLclHQ1HwmB4R0QDD7QixfXQKb5freExQDWP/R+9fiIO8LucREQ0w4v4XTkTx+PvvHn92Yo8Mf7flvC5viIi+pyPDQmAgFFKgs/pH8ovthz3H823sf/ZApL94PpIOJjAQCikw7n9wjNkdRPwZj7+jevzl4BB7eL/KDADb70HyLwD5b57z4/I1w3lFZAmMBFKn1LwkApcV24/9H/e/ePzxhOHOC87UE84lLjNBOYEM0yQRuKyjdf6xO3bjE7dKzHFpFzfanjhgSRqjjbf7/So6KXcDiTZc2sVj+9oDSVwS+984xb7j/iebchl96CLwjsTxQi6wxA7l0i4eJErCkjyMCO/Y/3+J//XE7q5KpmG44dwArm0m3aKBJOgGbuu6eND4DJjNr6SdCRLnqyC2r50Ff8X+515jOpnpVwmeifuf7iXGN9pXgUcM7ry14/CKx5/jlBD9O84/Zseu+4bpIBblessMHvogJcbp+NFJPMLw3XdEbI3y/5UTeUQU3NTJcS+JR0T1I2JmBD+HtSgni+sfdV4KjudTj4gmiIit0+P2t65gt8X9L9p5UnC8PuUR0QQRsXX636f/4U9q6/9pmlN7XcuAdlwQsF0pKxk6hVByhdj/2xiSS+TIxuZokrIeP+jhKUwYdgqhSazTxvbduyGBv+BUl2vcJTKmGOcn9n/c/7xuoHsFv0xvCfqM23WshlGKx5870sRR/7nxhx27+X+ealNiz20U23gJzMMgvWyZ4MfuRoxUvz1Fo8bvFOxQ4XcwLz0T/MT2jR/coek5KhADpGCHCr+Deelj/xtvxf0v6DWmd+i311HCTpWCHSr8DualZ4Kfv7n/w8NTr/am7vYthy3QSXYWYvWSIGG2yVYnJ0Go6DADNLaPjoieGPs/7n/oBnZOio6UCCccVvH4c/fMh3BURGQPm4+i8ZckFBPUS0+mjCfvRmGHifpBb/GEnTR5kPpQjortB65P6sBD76LZvfIkTR77Xzs37n+pF8p4/B3V48+GYvQ8EIx3mRMY+qxwQtDzvS90khmBiAVaBY/hEA4quj4roIQpUJQtNAIRC0wQB6QjdVDR9VkBJUyBomyhEYhYYII4IB2pg4quzwooYQoUZQuNQMQCE8QB6UgdVHR9VkAJU6AoW2gEIhaYIA5IR+qgouuzAkqYAkXZQiMQscAEcUA6UgcVXZ8VUMIUKMoWGoGIBSaIA9KROqjo+qyAEqZAUbbQCEQsMEEckI7UQUXXZwWUMAWKsoVGIGKBCeKAdKQOKro+K6CEKVCULTQCEQtMEAekI3VQ0fVZASVMgaJsoRGIWGCCOCAdqYOKrs8KKGEKFGUL8W1iD09FSaBViiJGJbViVJLICWmLCSIwatZyjEpqxagkkRPSFhNEoLUWRYxKasWoJJET0hYTRGDUrOUYldSKUUkiJ6QtJohAay2KGJXUilFJIiekLSaIwKhZyzEqqRWjkkROSFtMEIHWWhQxKqkVo5JETkhbTBCBUbOWY1RSK0YliZyQtpggAq21KGJUUitGJYmckLaYIAKjZi3HqKRWjEoSOSFtMUEEWmtRxKikVoxKEjkhbTFBBEbNWo5RSa2oJbgUw9B5JIGw+VseuATXRWy4TqBGBAKdLB3USjViqSQaLOMnth/7H30h7n92KMig80ePUALN6El8W6lGLOWoCY8hP/H4OxrHX/AnBaQxTVMmeyfXEK5AP2V48T/h4AbqMk5NrCd5eje35BrCFeimgA2sWebn6LF97+AI7or9H4RQdddJ3n/c3pRcQ7gC3RT/W/0vW/9Pzg+g0tmUN09eyp03D3D4WP8oKh5/f/b407divG5pCYv4vTUJJZr6vAULvECrKgqW4SOe2BIW8ZWTUKIpdgVaVVGwDB/xxJawiK+chBJNsSvQqoqCZfiIJ7aERXzlJJRoil2BVlUULMNHPLElFKWnZ9CmTZsobe9evf6amzmsYB6zl8OPOvDjrgL58tMxx1SmfPnyxO0PF3k/8rQ+Fc/50BNbwiK+chJKNKXdBVpVUbAMH/HElrCIr+xQWZmZtGdvGm3dvpXS9uyl9es3ou2zqGjRYlS2TGkqWaoUFS9enHLnyh2sok5iB/UsWcIiWCuyad/+/boPFi5USG/YMmH717VrKTcWkRKlSlCRQoVtv/uz6i9VkJKKXYYH9u+jtb+uozx5clNljIs8GBepHkmv5ZawSKpkli+arn12kvdwzN38zzdCtsfD0pzsycZ9+OysLLRBojykNYZXyInmZGTBGyAzK1MdzMxSBw9mqMyDB9XBDEDQWdlZSHyonCTvUEdjeIUc0QmhkfkaHi9SvzBtcizMS2N4hZxoCiPzNTzen2h/wYKF6owuZ6gcOXPhXw6VK2dOhf8frcoJOmeunJqH3sX9SjVs1FAtXbIEbZOZUKmwLhrDK+QkqII0Ml/D4/2J9ZfSxfbZE0GbBP7n8bf217Vq+PDhqn79+ip3ntwqN/pEzqCP1KpVSw0YOED9Cp0szAs2B2QT5KR5iS/P14Fw1+496tNPP1GfTJqExNl6/K9ctVLVrVdXdejQAbJPE7Nx6NCaxvAKOY5agBqZr+Hx/mD/mzFjhipeorhq0KC+Wrp0qc5d54OXn7tfBs9WsjL9QfvhPXY9/8vcHwxX3pLpcauRRI1whYTk+1mzacmyxdSk8QnUoEEDrRu+nHxDZhLM0QM6+/vZ9M03X9O+fftp/rz5etVnjZo1alDjRo2oYaPGVKtWTVNCJ2k040MKHXVHz6IW0XouZVdISOR/0O1k5qBuKocdQR09i1pEa7vUf9r+6jWr6eXhL9H3P/xou4HY5x7x2/oN9Ntv62jXrt3UqGFDGjdhHFWtUpVy5cqVUDNJlcCOkI6eRS2itV3qP11/E8t2LVo3mLJAFPy84G/Z/oeq/4zp0+nlV0bQJ59MogP4smvTqhUdV/M42o2+8PPPP9OqVauoEHbXTZs2o+eeG0aVK1fB7jX1rtV0BcfXFlX0yCOD6IMJH1D7jh3o0Ucfxf/4PovWrl1DXbqciXwr0R197qTOHTse4qvAZhbpcT7D0bOoRUyb4y2z4aH63/SvplMHlLdWrdr0/vvvaujbSkY5tixqkcOynzCxJ3RcpxLRYhiDYnbnrp20Dp8e69evp82bN1OdOnWobt26unE5ra8d0JLYyVxY33zzDf3w049UHJ91rVu3pt27d1st/hxLw6fOBkwsaWn7qG6d2lSnXl3zyWe1fORw7XNqKYufk1CJOQo/OUzU1nQSAy7LxaO5GumhdcJUidqaTpLYZe1PP0Ab4eM9e/boRZxnL72AIdtNmzfRiy++RF9Mnkyl8cndvUd3uv+++yl//vxBXDW0zdiR2HfL4ueWLMeohsuJ7fOEFHpUYyFpXeWyXNwqAFm8aBG9+NKLNHHiJKpe/Vi69tprCLtnKoxwCIdIdu3aRXPmzKFx48bR7NmzqW2bttR/4ACqf3w9yps3n87qcOz37t1b53Xe+efRM08/g86kaP+B/bAxV+dXvXo1KoU+eKjH1CWs0eHYT55vYo6+1ldffUX4mqDatWvTuPfHUQ1sQP9d/jeWDm3fTuxhlf0C8pA0gX9Hw6IW0Yn2Iw62efMW/NuoY2L70vZTmTKlqFq16lS6dOkgY0kj0C2mwf/1zjuI3e1FzPYYvSOvfuxxnlO4f6alpdHGTRtow4YNtGzZCmre/EQ67rjjqECBAsjEzzswHACRCTRsn3JT/PH6h6lS5xaWzdfxqTCnw/G/pNq6dQstWbqU9u/DYRb7grcYfFqq/YLWxDYTX3nwVSFq1KghFSlS5BAe8+vP1IF96fT888/RG2NG044dO6hz5y7Uq9dthE/yoAiKVq9ZQ3N+mkuLFi2g7dt3ULFixenYY6vTKaeeQhUrVNC7+vT0g7R69Srs+j6lZic2o5W//EIrVqzABFGIWrRsSa2wC8zOzqI5c+fRTz9+j13ar7CuqEypMlSvXj1q07a1Lnu4hwrMJ9SG0/y6dh39hI3C/AXzacf27VS4cGGqWrU6bLREuY6jvPnyUlZmFvruJnr/vfeo3vHH09atW2n58mWUlU3UrGkT6tSpM+XOjXixbSxFBw8epJUrVxNCBdSiRQv99bJ8+VL0zU2UL29+fL3Wp1NPOxUx13SaPv0rWgD76enpVKlSJTrppJZ0IurND2fJL4Qu4LefUE72G5ezEFWtdiy1btVCT6L58uWjzIOmnO++9y/9dbx5M8q5bJl2A++QO3Zsj3LmoSVLltKP8Nty+JTHYsmSJahGzRrU4fT2VKRoEUJIja3qx1ZJGBb67X8w8yA9OeRJGjVqFGLoJahPnz7wyxm6nOaglBMq2gLfTZ3yJXbrz2qfPzroMTrvvHMRcy9GC+YvQJvOQX9pSBs3btDl3IeNWoXyFbS/GqAflShZkhDCoTffHEMvvDgcaX7GV3oTuuKqK6jZCc3gi+r0/rj3EM8vSs2aNQddDXZJnwvNnfsT/fDjj9ho/oZ+nkVly5ZDfzme2rRpjY1mQfT/nNBUNGvW97C9mMrDbslSJWnWzFn6S6Ag5pAaNWvia6MpNqd1oJnDzj+/rPyF5qJf/4K+ug1nC1zGUro/1kV7nkTlypVH/oq+whdNh/YdMbHXQjnfp1o1a+nymZaWsSh7/5AbKDnA978W2MayiKPPKG/AEPHxBobVtUhCopD0NaQAhMGYTWvXrMXhwVq9gufFAULhwkWpwjEVcahSFhUP83CrxKv9xI8n0UJMBidgIDU/8SR0xpKusoez/T3YyX/77bc0f/48uuTSS6lypcpGxysciOAaiHw+hRl5ik5xEvhhAov5GmH9tYInBPEn2v/+++/pJeymN2/ZrIvCOwX9p95yAsMkxf7nf+XKlaP7779PTxjRSnkVsGKelCZOnEiDBg2iVatX0+nt2tGNN95I7dqdhkxzYgAQJq8FNGH8BJr65VSEan6j/Jg08+cvSLnQD045+VS65JKL6Xjs3njX9dW0aXTHHX2oceNGmORX0ypMkmXKlqGrrr6Srrn6Wpo5cya9/fbbtHDhQt2vciLMgzg/Ngxl6PT27emKf/yDSpQogYUiZzAAg6I6xV+0cAF9jH41BeXhwV6gQH494PPkzUtNTzgBE8751BqDHhnQwgUL6cqrrqTqx1aj7dt2YNJeiQPhfNA5jwYPHqwXJHEGm+CDZd6d3X57b2p64om0Z9ceTO47aeOGjZSekY56Hk9nndkVi8R2mjrtS9q8aQvt3bsHE0wBfKp3pD533KHDFIhNa79N/HgiTZk6hdZvYL8V0AswhzB4kjn//PP1Ysf22cf/uOIKHZbctm0byvkLFqf8dMH5FyB08TDN+3kevfOvd/TY2LljO3a2+akAJjXOs3OnTnTZ5ZfQMVhccG6C3LjVgsf6zSIi0XDzli10E9p7Oiauiy6+mB4eODAYo9H+v37DehqJBWDQwwPp8st7UO87bseifgy9887b9NJLL+Crvq5eSNk+zxmYi+iYipWoY6eOKN+laOdc2DD0ovHjx2MB2Kg3etzm5517LjVE6O+666/Xm4Rrr72WTj65Le3YuZO++fpb9JextGjhIu71ur3Q7dFfylHHzp2oO8pRokRxLGo5sGC8QG+OGYPFpoSe2OchhJSBzQb3y/IVylGXM7rSZZddRjUQ+uVn3rx59N7779O3iCawz3kQ7cbXCS/uHBK+vHsP6tSxE1WsWAH9Gjv2jrJjf49q1qyt3fxnzT92x+7MaLoSYTOFmBa4r+Rtz+PDdhUe2Euxm9iDzl4Kk3pZ7OCLFy9JxUuUxLUo7H7so3QsvXv37nTllVfp3VhJ6HC5zIppFUMkMHTgQDr17fsQndG5MxaEplS0WDFrn5WlPAa67zCrUMvwQqsh5mprXDJOECSyhXYtCy9M6nNCqyEW6gaYn8SKv/n2Gxr2zDB9o4VbgnPg4Ys5HTDID7u1ihXK00AMTNNx/cxCqyF24MABLLoL6e677sZO8Edq3LAR3XJrTzrnnG6YOPh6G9oQX22DEAd9e+xYPahanNSCaiFUloG0kz79lNYhNnrrbb2oxz+uoGLYNX7yySd0KRZkfnjHX7FiRT1pt8VAPaFJU7TrgzQTn/Mtg91tgYIFaMniJfT111/T3t176J8YnO3bd8AXQVGdB7/cmuyBzrP4uvgXFocMbBxOaduG6sHOli3b6EtMoMvQN8866yzq3bsX/FATu/qf6IwzztDhp5rYZVWpUolKlS6DHXszuuuuO60NjcDQ7j279RcHL1Y8PTbAhNP8pOY6LDh37lxsOBZQBQz0XJgEKlWpgnBEXexmt2HCnQmdnPTwww/rReMAJpPnnnteL2K8C2yDctY/vgEWhM1YkL6kZUuWwc9nUy+U8zh8YXA5u3RGOdP2YtLgclbG2CpDjZs0gW970IMPPEgfffSRngxPbN6cqkG+EV/TX06ZrM9Gnkb/6NrljCRf0qaKYauHGEvmYQN1e+/b9UR70w03Us/bbjUJnLf4fy8WvZnfzaSzu51DJ2DhHvTY41QfIRuOzd9//wP6xsgJWFjZ/0XRF37AWc53332HHXR5GjxksG7/t94agzZ+kRbOX6gXf150mzRuom/bdDv7HDoGMfY+iLGfii/BuQj/9Ovfn2bOmkVtEL49EQstL8oLsCmYiTGxH2cBL77wPJ3W7nRsNIvQo9ic8GLNG0r+mqxbt54eC0uWLKFZs2fBn+WoZ8+b6eprrkVcP5v69etLY/AFwSGntm3bwqdVacu2rQg3fa+/BnmT0wtho9MAp9tQTB0sBu9R7Vq1gn5pvCM+Ct3mc0Kvh1ioG2B+EitmNu8I+KBZP3yzxT4R1DmvdWS843cysMkNwjKDYYVT06ZNUy+++KL64osvFHZnaufOnQo7QJ384MFMtWbtGnXNNdcofB7ZdJzaZOG8gzzFBt+WQUxP9e/XX6FjGLZ+Q9HTdUQO+mfU3zEXQf/d9nfjFsHixYvV3Llz1Nw5c9Xcn38GPlf9jH8MNQ4eOrBC+MxpPsdZCWgmbiVhQlXX33CDwq5PVT+2usLnONpwB3xslDPRhvPnz8dNgIaqdOlSaiBuRezYDjkebud33nlHIVymTj75ZDVhwgTd/mPHjkU/zKHy5y+ghr88XK1bt07t2rVTLV60WD3/3HMK18VUq9at1fezZ6mM9AzdnMuXrVD3P3C/QthNdezYQd/G0UacMmsa2rNnzVbtTj9dVatWDf2jn8J5gRHhzWVo2bKlql27jho69Em1N22vwoKhMMmofHnzqoEDBih8ciu+lbFt65bQhGOHy4pFTCEMAb/k1z7ZsmWrvh301ltvqlIlS6n8KOcll1yCOi3C7a6Dum2wE1UVKlRQ9913n0pL269moZwIU+lyDoBdLEi2nOPGj1ctW5ykcG6lnnzqKZW2d5+a8fUMhXCSypcvLCcOLtWaNWvUlClTFUIOyL+8Gv36aIWwps4LZ1/q+eef1347++yzYXOWqVNQnz8y/j/7/AuUpZVq0bKFGjNmDNIjcdiBbZkZ4Zts3GcKFymiEANXH37wgeIyYOFXOGBXCEepyZMno03SdDosGuqWW27R5b7xhhvVAfRNfm4Gr3KlY1TvXr11+yMUpRASUTjDw62Y9urTTz5R2ECqp558SuVFu7Vte7JC2E1lZKTr4iEsqe6++274pJDq3LmzWrlypc73kUceQVsXVQjFqVdfHanS9qWhKtl6/ul+eXdVrmxZdfPNN+EGnlL7IevWrZs6rkYNNXTIk/CpaR8syAoHybpfI9yiRo8erfOeNu1L3XfrH49bMcuWaV6qV+i+oCFYMYIahn47Mq0YZmBN6IndUi7iJWaBywi6gMuyaZ3uYeUWwZXFTDXzu2/VsGHDFD6ZFGKqehDwgOYOzZP+zp27fHM67zAPFmrKZUEHq6h6bdRIXI/M1FcvETPVV62ycGUyC63DV7SYl61pkQUQMr6uyVezWDdbp0Uay+M8RJ6Ja5jQZx3OU/4xD3lrGev+P+zr3mR9yohb2eT1N+pcT/yDD9jXfP0wM/Mg/mWhXIaXpWkj446c9Elgr1v3q55UeC+QO3cu9c8XXlAIN3hJeZF46cUXVJWqVdWZXbuqSRMn6Qk9Pf2AwleVQsxYNT2hqcJOXWGnFEzsbyG/3Kpxk8Zq4YIFNr/5P89T1113vUL8X4167TW1bdtWK+P2xK5MlStTVl+7/Bb9Kex1IcYuGzFihGrYsIG6+OKLFQ7yAjeayvEkewMWKp4gL+9+udqLSZ8n9iJFiqo6tWvjGt1n1mYq/+/avUu9/c7b+rpf48aNMXkvtC2Fz3HVrl07ha8J9cEHH2KBMP16x/ZtWEiGYvErra6//npM7GnqlRGvqIYNGugFADtAzxyX87rrrlUFMTH16NFD7UY+03GdDne39ZW/z7/43JZz/W/r1MCHH1YF8udXPbr3UD/88APa4AD+ZSjEsfVEW7RIYYXwlRo/fpxNF0ES2l8K9N5776mmTU9Qp552msKhYCQZ69mkQHAGBn8W1gsfL+KbNm5Sjz06SOF+u7rwwgvVvn37bB48/nixqFjxGHVS8+Zq714z4fPEXgkT+21YDPnh/rzil19UvTqY2LGwf/rZpwoxe3X11Verkrhi+Aby2LmDNxwma+4vfP0QIT4ERHOon378QU/gCFnpib1NmzbaN0ab889Sd991F9qtuLr88su1Lk/g38OXnM+aNatVBtrkIHzKi8GSpUtU7Tq1VVX0+5GvjtBmEWJUeXLn0VdBl0JuH10m6yHLjiARFZdx6PHPmpFQjLu7t7hFZLfvMDRqaH7zE0bsQj3BGGYgTpuRgYOzNasQ01wEPJ3Q2ei1N97QseFy+KTMgdifpAkRnT1eVhKghn72uef0iXxtxLv4ehUHIbLx5pwYcrnClKD4ikdwqKh18bnMCjkDNotwW1vH/jieZmioBIEynZ/OUL903lxCzovfOk+8j8Q+f2JWqlwZqfGY7BgLHoehUUPzm5/f1v2Kg6HZiP/uSVl/PkAqXKQQnXrKafpQTYw4OVuze3CFjQ+AHnjoQdqJg1AOB3B8sypCCxwH1X5ESdP27dOx91EjR+p24FBPaT5TQZmy8cKKg1DOIhwk7tef4rf1upWmTJ5KV1zxD8QzO9OQJ5/SB+Csz5/kjzw6iL5DzPTjjz8i/mTHzperh0fRYnwu97z5Fpox42saN/59xPpPp/wFC2qp9lmgN2Dgw/TG669TJ4Qd7rvnXh1XDuVEjz/+BI0Y8Qo+7xvRkKee0je7uiIU07zFSfqzvk0rE3s3DaEz1fa5ffnh632ffDqJrrziSlzH60hPP/001cAhPj+zZn5HjyF/vhr4Ec4lmjRurOuwDwf/o0a9RgMG9qdzu52HsNnTNHToEBqJcnbt0pXuu/seHWKwbQHksccfoxGvjqCmTU6gIUOG0K/r1sFnZ+DAroXOpxXKyfqrcM1w8BOP6/w51FkZ4YJiOGBk/xOO09IzMnAQOR99mOj10a/RJRdfioNWPkQ11swbpOW4CK4gI8xx9z1365Ab+/8fCKlJ+3NafsS/2EDQsuUrCJM0lcf52vPPPqdDRa+OGEH//OcLdM21V+Mm1QMIl+RFKmN54qRJ1PfBB2kTzocwkVJ5hENuRbjvgw8/pPMvOF/fisFETWvw46Szup6JUBNCMXfeQQULFqJHH3sM4ZwfaNLEj3VILD/CMFKaeTi0vq3nrTQDITzs8HGQ2paeevpJ+P5Z+LA5ffThB1AN5xwOkb2Amz/tMD7efPNNXb50xNIX4WyDD375YHolDlBXrPiFtm7bQlsQ5iqLEFLfvn3pOsT8+dylY4f2VKt2HdzoeR+HsbW0X1z/IlPnMRJXbnGLiLrD0Kih+c0P+19P7FbNIloOX4PBkx0eK7JIoBOAyV9M0XdaeQrlSG6YlhPg4VkxB8s4P5PJPlxV3LN3t445rv9tvT6I+BE3F/hgTD+HYZ+zHIWDmrfGvokDuw04JEKj6rKnts9p+IDcHB+jXNqeMX349jGRcxZB3f5I/Q9lHzs5uvGGG4I6iMdQKuM6p5AB6vC//HIaIYyAA7gNQQIGvv/5RkQlDIrn//mc7nzcKpG84Q98/dCHGFTDnn0Wi/ACao8bFQNxGFa9enXE1XlABg/sY/dF9953L+LE7xDfLKgGHb4FoZ/APi/ofNPlwgsvwsTUhb6a8ZU+U7ns0suo70MPIU01rY6dEQ1AvPRHxJKnTJmib6noNg3qybHxO++8kz777DPcE36f2p12OhUsJBM/sgj0EOqgt956Cwdu56Nsd+tbC1YInWeefYaGD3+Z6iG++tSTT9I63MvnGHtHTNL33nMPbuucqMsTZGeTaiZefA2XzwmuvOIquvjii/QkW7VqNa03C2cDT2CS5UH+2aefU/0G9XCIXAB+MhM7QofU7bxu9Azi3Y88/Ig+yOPJi8tctmxZ5AGrwfh7CgvGKy+/jLh7fSyAQ7EA/arL2QkHoayPLyHokr5V1A/5vvuvf+EA+Fgde0cIAnmZ9ucseSPFEKENanf6aZQHVxBTtb/Yl/pv3rSZrr3uWn2QiK8dbdt3UOAZJOCbbTNmTEdbX6hviDzwoDmof+WVl3F4Opx63tKTet/eS/96VOzj60NPjgjV0o88seMGFR+gTvjgAxwMBxM7+g9CTnTmmWfq20V8Mydvnnz60JhvPU2ZMhW3UGpSvvyYA4Jn0cLFWJC4v3yOw/+PESM/Ge39FA5Q/0mtWrfR/pI+w0kQpsEm80Vqe/LJhC8NzBGKRrzyir5Pv+KXFTouz7fJ+HYTj4W3x76jD+X7Ig7Ph7nm8DS4FYP+qW/F6LvCXNPAmz6w7KDIXvuL/yWp1RHEKhhGuGN3OpHoMhR9ga5McJatWL5cXx0ysxsmOaRkvn5QF519kIlU7eef59LUqbgpgHvvfAVuK06aP4fjS+PnyPKIXYHCd6HIBgzor38cUaRIMSpTulRS+7p/28SSEoyg/rKJF4mGXH6sSbwIsFyWJ6lleLzB2vywxPguIG39/6j9jh074RpZxz/sf7ZnLObAFcPFuJUyjrbjKqJ+uPwomtSNdflqGl9/uwI7TT6wlPqbBOF7Giall18ejoPGaZiYjsdu6iFcRWylD75ES/sIBE9YTwx+AhPQq3R8vbp0Trdu5gqkY3/z1i36Vgv/xqFcubI0efIUuuqqq6gHDs0fwE4Nn7M6Wz4AG/zEE7ghMpUmTBiPg7Dm+hqk2ORbMtdde50+zJuEH8m0QpnMztN4QvQef/xxenXkq7i1czrdi50wzgZEBKhowICB9Dp2ym3btKGnn3kGd7QXE35tS50xud9z9936MJ5zlDo6iTXKEzvbv/qqq3EIfAkO2PphMjV1QAwbE/sTuPr2Fa5DfkYNMCnnx40c3rGPxCaE+2u3bucSwpLYOT6Dco7ELq8D3QW71TFZ8CN2ebLm66WnnnwKJvYn9V1yXhi7dO0C/bvMxA7t1avXYEc/lF7FV8iZOJRELJ2qVK1i2x8f8fpQnQ8VTzihCb5s+Qdl7kZMm7UvsS8Q51l0c8+ehHi5XuT79e+nrwYar4uWSc5XAtn/o98YTbfhwPx6tFdx9DmeIBHrp6uvvooefLCv2bEH44/zve/++wnhTPoOt92K48bTbTignTAeE/uFsmPPxsS+GreNzsIX2DH4gVIffPEX0Yso35AbN248DrubUoHgC45Lg3MmuuG663GQuoC+xGE0fwHyosu/xUAoRh/2yyLG+g9jYh/+EmQ4JB0z5g3tV8TbcYi9lJrhC+Rk8HnO4j+bwG3KX2zc//nwlvslH562R1vyPXb+2uUDbjuvswH9OP4K6i8SgaIhUPguDGUh9n8AAAD//75EzO0AADJDSURBVO1dB6AXxdEf3uPBg0fvggiIIghEiYCaiMFEowaxfxEkoKAiSlExEvWzJIL6WRIVawQFBCxYiYoNgwqioqA0pfdeHvB41Ffmm9m9mdu9uz+oUaN4l3DTfrtzN7s7u7d3/ydg0lEaUUZlNccNcY2CDVNcUozTPpmGj/7zURwyeAjeeOONeO+99+Izzz6DvXr1wokT38VtW7f5hTJW6huGDB6Mjzz6KE6bNg0XLVqEixbTP6Yuz7qFi3Dh4oW4eNHiuJ11ZLdlAzvJi906TJ1sW2hwXA/bmS40tohPt+zX9L85f3MYA/82Qz3GDazZsWMHLl++HBcvoetaHPwTninf45JFuHLFStyzZ49TX8AG1S6k++7fvz82adwEf3X88fjU6KewqKjIwfv+9+zeg6OeegqbNGmCxx13HI57fhyWllpMSWkJrlq1Cu+55x684/Y7cOpHU3Hrlq34zDPPYG5uLl7W+zJctmyZrZuKfPnVl3jVVVdhxYoV8ba/3YZr16xRv4WFhfjaa69jvXp1sdkRzXDWzFlq868IcezYsfjLX/4STz31VJwwYYLWX0qxW7d2Hfbo0QMbNWqE1w26Dnfu3IlTpnyIlStVxj9e8Ef87LPPFK8OPKYUtxVsw2effRYrVKiAl/S6BJdR3OX4+JOP8ZxzzsEaNWrgp59+irt27TKmwu2FOPShoVi7Vm289NJLTXuNfXostmnTBk877XSc8HpwnUFFa1avwe5/+hM2atwI/zLoLwY/efIUrFQpDy/ocgFOnz5dXOLadevwH//4h4npKb8/BT/88ENtg927d+O8+fPwhutvwLvvuRsXzF+gNo5HSUmJrScaxIg8mvrBcccdj82bH4F33HkHruG2CdqZoVwPt/Vj/3wMDznkEKxSpYpph82bN+PGjRtN+1eqUglPO/U03LRpk/rNz8/HBx4Yig3qN8BOZ3Si9rDx6t+vP+nqY/8B/c31FRcXU79egi1aNEe+x7fefAvnzpmDjKtMvu644w5cv369xmT79u34yvhXqL/Uw2bNmuFXX35Fd1uKtw+5HRs0aIAXXHCBYg1DNzF4yGBj69KlC+6i65jw+uvY5NAm2PaYtvjUU6OwsHAHQUtx957d+MEHH2DTpk3xoHoH4aOPPWaqeO+99zCnXA62atUK58+fH6uf/Wc8oqaorAXjBtGAYpghrRiMPmgsD+MKDtiyjoJxIhItoAHw+Rcz8IUXX8TBtw3Gbt264e3UKWbOnGlq3JK/BceOGYu3UXLmpGSOr+mfYZuo09x111348ccf27J8dvxbIQhnoBezFiCFp/ua/kNXXumwMqPm00/L/z0Uz2bNjjAD87zzzsN33nkHP/roI/PvY6ZTLc90xuef49q1aynJzsQOJ3bAunXrYr++/UzSWbZ0Gc6ePQvvf+A+bEgD/cQOv8GXXnoJ87duocT+NCWh8tj7st7IOInghg0bcMQTT2AtSn5t27Y1yZMHyJKlS/Dtt98m/GWYWz4XL7/8cqeclA5alES+nnPOPgcPO6wp9u13JX5GSXDF8hW4YMECSq4PYuvWrShJHYtjRo/BnTt24uQpU7ByZUrsf/wjTqdkvM+D6t+2jRL7M89iLiX2nj17hn2XCn780cd4Lif26pzYp+Gu3TvN/RVu34EPPvgg1qxdixL7JSZR8+R01plnYdPDDsN+/WzcVtI4WLBgocFygjieJtcxY8YY/JTJk7FSXiWTlKZ/Nj2IWynuoElv0nuTsHHjxli3Tl288847zcS3hCb0qR99iDffcgvFrQJ27twZp378kUns69evw0n/noT/Gv8vXE9x18k7Q/9fvXo1JefbsfkRzbFly5Z47z33mrjNnTsH58yejR9MmYz/uO8+POHXJ9A15uGZnc/Er2iiLi4pwg1BYgcArFq9GiX8MWT7CpdQon5+3PN41tln46GHHor3Ufm9NBHxMXDgQDzooIPw/PPPx9lzZpuJhBdSLZq3wFNOOQXfpMS+jhL544//E+vUro3t2rfD5194wUxcS5cswTcmvEGLxp6YV6ki9rniCly1cpWpd/DtQyh516cY/tHIHETpQYMpDx1Mk0mXLl3NhPzyyy+bmB5LfWXYsGHU55bi8mXLcerUqdi79+VYnSbvmvTv4YceMnVN4sReNgdbc2Kfx4mda/7hxr9N7HI39vbM2Vc5ksM68IxsAXX8pUuX4ptvvEErsKtpVXK0WbWZFZjUFVBePfKKjpP9zmB1YysWIEkOK065I3LSue7Pf6YV1xRR759KXUKdEr7KkRzWgX87VuoS6tTiqxzJYR34t2OlLqFOLaziVTcPwLzKeWal85uTOmLH39C/jvF/F154ISWHf+PevXtxyJAheNRRR1EyPRzPPfdc/Ovf/oaX9+5t5IYNDzaJaiMlEF2xU6LpfTkldlmxk+8SSiqcyLl8rTq1sH379jjg6qvwpv+9CTt16oRVq1U1Pnhg8RNKxoPqGTp0KK20jqGE0RTPpsTByW7gNddgo0MamYTxvzfehCtWrghW7EFip1WcrtjdTheJlUnswYr90ksu8RM7LTL4+nnFPp1W/7t22UTFTxwPUWKvVbMWXkYT1I5CTvileP/99+Mx5joPNQmOr/Pqq6/Gho0aYn1KMv97M10nTUp8v5M5sVeqRImnC86YMcO7/YKCAuzbty+tIg+jVW0LvOiii/CWm2/GCy/sRivohtiwYUNK4uP1yfjtt97B9se2N9fJ44ivz79NRwpYnmA5+fF1Va1aFTt06IB8/+yL+wc/tR18cEM86aSTcBpNkLuD8bxx4wazos7OyjJPRryCHnjNtXjDjTeYOnhV3bVrV/PkIU97d951Jx5++OF4CD2x9OrZC8eNG4fzF8w392YT+5tmgvpy7lzTvrVq1cJjjz0Wr6E2vvmmm+gp6DSsXq0aLRDa0dP8J/rkxDsGZsX+xy5e/FjgBSbbOL5FxXvxyy+/xBNowVKndh3z9HfrX281/ZxX+/xUUrNmTaxCCwJuM85j77//PpanhYdJ7NEVu3iTsAoVPVFf5UgO68BjrL9iV3NC6QSVgRu9YwzYkuIic4Mv0gqdH5eOPvpo/Ofjj+/Lg8HfR4+Rt956i+ms0rChHy2uDD3hY+H2Avz73/+OK1ascCISXpNwQrmwy2tlyiRYE1QGbvSOUVll1Feo+Wn458Favnx58y+3HNNcyxtdOWsrl0srwHJmkL1AqyTejtlBK98RTz6Bv/71rw0mp1w5zKOV28m0unr44YdN8uNYcFLkQVqFEkN/WqWa9guDalaO/Eg/YMAAWj01wHJ0DeWoroNpwPXo0d1sbxTtLaYSTmSVVQa3U6Li7ZKTfvtbcz1cRzl6SuAngUdp627FypXGK2/F8JNIrVo1sUf37vg5PYXoEVanKmYKtm3Hl158wSS3Pn36OIm9FD+hLUFODHUpWX3xxRe0YreJnf088tijJnHw6pxlPjihPkfX+dvfnkQxtffK8W/Xrh3+89HHaHtjtcHtIvyHH04xibhH94tw5hf+ddJcZsbEXXffbVbUHH++59p16iA/efGqf/OWfFMXnyZOnIi/+tWvTH3vEl9YuF1tyiTcP7fNsMeH4/G0iuWtKBPXnHK0ZXEo/s/55+EjjzxinuJ4kuaDz2YrhrZKqtDEzP2L24DbvzxdHyfvQdddZ1b3pkBw4m2si7r3oCfHqjRZHIwDaHuQV/m8eOj0hzPwnbffMkhe4PHi4Morr6Rtkbr2eqjeg2ki46epT2lyle0mvhZOwjwBdaNtLv8oVVt36gfmoAKvvDLeTDqHUH3laJuFJ9aWR7bCkSOeNBMwX//VtHhdStcwldqHn1p5G3DBwoVShbqxEVExwiRYE1RhpY4xYMvYcJeBMmVobcbLM/oXsEZ2da5NeKEKJoZWbTBixAgYNXIUNDm0MZx//v8APUZC5cp5kJdX2YUSjzS5WP90obB9xw645aaboHnz5tDpD38AenTXa3J9Cb9k6TK45Zab4fzzzoWOHU+CatWqxeoP70hKuZDQP2uTEbYG1ya8ULdGn3cRLi+oH6//DevXU1sWQSlFhfsHNY/2DbkTS8tA2bJZULVqNaABbm6MkhVsL9gO+Vs2w7ZtBaZdatSsDnkVK0GF3FzILlsWaOKG3bt3webNW6BypTyg/VHIys5WH1xRaUkpbC3YBtu3F8D69RuAVnpAK2CDpRUSUNLy8BLVkHJ8AWh/Gwq2b4Mt+VuBkgvUrl2brrcqVKlSGXJzK9L1Z/MiB/YUFcFmstO+P0j9/r3amkVXSgzfQ/7mTVCxYp6pM5vugY8iih373L17j/FXrlxZ0maZQBZSP6eJjcpUoDLVISurjPG/c/du2E76LVu2wOZNm4C2oqBy1SqEqULXVAHKUt3mOmmMbeLrpHjzfeRQPN2DMbSXb/xv2rQZaBVJcatG7VADKlIZLpdFseQev2PHLqDkCJf17g3vvPsutDjiCKAJRauTexXKBuZLS0pg567dQNs/dL35Jq40gQOtXiGP2rMixTW3QnnIzpZrQ+Broa0MGDr0AaBtDrjmmqshn9oEsBQowUN1KlupYkXIyclR/3sojtspjvn5W6CY2qdOnToGm795s+kvtIcPNBEaPCVuoCcWoHcfsHH9RrKXofuuaWLE+ScnJ7wvxtEkBuXK5VKca5ryco9s4/uixQxdUw3Tx2gXAWhSpXvYRPUXGJ+1gn60d89u087cb2grD/g6NtO9sn9uw7KmfaR2vTVivp/xT4mduz0fgVND3Atw9Q7OlPFPNFvCSy+9DG+88Tq0a9ce6PEOmh7aFA5ueDBUr1bdgLVmYiifO4My9LNw0QKYPn0G0OMWVK9eDeiFEjQ7rFkAtrg5c2bDiy++BPSiFOhxB/r16w/1DqoXBNC/Llf6Ov6hjKKoaHhd9mJdm1vz1+O1NDGZ7v9A8k8vuoBemFNCyrHJk8JkFg7f9P4pg3LSLUNtQ3uXUMYkpa8Xc0FxV6fVIxRTUszJoQkhOwuyZEXjtbO2EhUNeFUpI9V+I6qlicnU/khTKS1yYW/RXko6OZSAabJTsNbwtfzyPXP86cnWxF8nTsf/vK++ghEjR8C77/4b6EUkVKcJgH3aI/CnbpXx/BcXl9AiYA/5sO1sJw0PYoSNlBSHU2J/cOiD0P2iHjD4tttMf6D0ZspmlaHJJsP4o8UoxYX7Ek0U2m5xH6zh++b40ZIRyuaUpXbmSUxb0zAaUtdibs+9x4BXFfUhulf6GIAuIcubgEw1+zk51WRs/0z3rwPHMvv05CR2H6cXIGpSuIGguGlsGfvWmxMoob9lZtN6detBy9YtodWRraASzZK03otcSqx28aKUHmfg8xkzgB65aFYthNo1a0EprWoaHdIQ6KsZ2LBhE60EygC9/ICWrVpTcj+SOkY5W16qN5S7zDf3L1XoBZFiX/dP6y2CBs86whqa+k/j/+Puf/QiGejLDrPSPI+efDk5Sxf+rvs/r3aHDX8cHhr6EHTv0QP+9rfbaFUcjFt15iRg0dEFpeNPMwxNXH7+jeYfTeyx9OOWlOA6NIqfNGkS0J4k0F4d0FcGhOQkF+keIgp17NH6+Mq3bt0KX877CmbPmq210QsN86iVRautlkceCa1b/8K5KmHFgdBAL6LQ/fjXmUuqdWjseh1beN/qyFpFFJr6p7jYyTAWz2/Y/7zwa1w10Gn8OQISDqGBgreE8mkrhT7XM1tQJljfU/y3FmyF8S+PB/oUFk4//TSgL0roqaQcXUlk+v+e/GsikcfGA7T/leE3GsG92c7vtD8r+JGmTPDYo/1BkSETs0UUEdEUNLoEg6tK/afxT/ufTH4yDYbjTjh3zISDS6xhTg81gS5W0Md+1+OP9/oXLlxonsTpJSu0Oepoet8i2z726txL+q79/7fv/4fyryv2eEhZ44WYZNvBLDZijihtSTq7z0+CyTgbu/4Y7MouH1SUoJIy1kTn1H+s2bznOGkTQ6MBdWWXT+OfGC5HaaNF57T/pf0vkjZ/iPFnErs7K9rEyD00uBrTQ7Wbmq4r1xlqfY0BuScGcpLO8MIj9R+uytP4m85C/SXtf2YImUFmTmaZwzp/tFmbwXoLIasxZxNSOqXjzwlKyB6I+ceu2E3fsB1EWb5v6UFhDDJyXI4PU8QTrN49x8zqNHgFEAO4pZN5r4gnxPExMyuCN/HKcrH0/uPBy6DxYuoJ8QIxswY9bX8NBYct7X/xzpNB4/UpT4gXiJk16AdO/yvD37P7/cfcZRANJwSB2rUyyMoZjBJTMiMlzvDbAKkl9spEa7RFGccHXWEGF1adwWgLm7Kp/zT+af+TkR6MFxpUbq+ww0VsLDHPRzr+fmr5h1bs/BMLZ6aStrctas5uUzvqr8165Z2+YiuwVnP2gGH1GdQhYD+cV54FPvQ+rdWcPaCF8TmDOgTsh/PKs8BH6t/GIYiuiZEXqMBMJIM6BOyH88qzwEcafxuHNP6mM5g+4nWUIDxEMqhDwH44rzwLfHzP/S98eep5t771LC87CZP0LkhxCUxYbdLqwCkQAh1lwKb+qSNQT0jjn/Y/6gaaE+IjJaYJh1U6/uJPJ064wkA5yoD9CeafhK0Y92aYT+5G+4qDmeKCapKLB6WJZJwoTDBT/2n80/4nQ8ml6fjLNDIoShwcORK7z4Gff3QrxsQhobf4qjAgJmH7RgklUWsQs1AFeApHcFjB+qpAEqVQASu1BjELjZgD0bE6rGB9VSCJUqiAlVqDmIVGzIHoWB1WsL4qkEQpVMBKrUHMQiPmQHSsDitYXxVIohQqYKXWIGahEXMgOlaHFayvCiRRChWwUmsQs9CIORAdq8MK1lcFkiiFClipNYhZaMQciI7VYQXrqwJJlEIFrNQaxCw0Yg5Ex+qwgvVVgSRKoQJWag1iFhoxB6JjdVjB+qpAEqVQASu1BjELjZgD0bE6rGB9VSCJUqiAlVqDmIVGzIHoWB1WsL4qkEQpVMBK6dlEX54KSKiC4oyFZAbGLVFNKCsnjNC4W9VYSGZg3BLVhLJywghVb3HGQjID45aoJpSVE0Zo3K1qLCQzMG6JakJZOWGEqrc4YyGZgXFLVBPKygkjNO5WNRaSGRi3RDWhrJwwQtVbnLGQzMC4JaoJZeWEERp3qxoLyQyMW6KaUFZOGKHqLc5YSGZg3BLVhLJywgiNu1WNhWQGxi1RTSgrJ4xQ9RZnLCQzMG6JakJZOWGExt2qxkIyA42FPoph6hxSQNT8LEO87JmI2WqdnRYxCHWqdFi1GkalBATb+Ej9p/GnvpD2Px0KMuj80SOSUDt6ome1GkYlByY6pnyk4++nOP6CPykgjWmbMumcjBCtUL9k+OF/5MUNwWWc2l2b5PJubckI0Qp1S5APmrPsz9FT/96LIwpXGv9gj9Z0neT+4/amZIRohbol0v6Xjr//Xv4xX8V43VIFZfzemiAJUl8ek8L7kZsAEsqyyjOroEyGUqFakKl/G3eJg0ZIAqQKn/HMKijjgxMkQYpfoQoVgCp8xjOroIwPTpAEKX6FKlQAqvAZz6yCMj44QRKk+BWqUAGowmc8swrK+OAESZDiV6hCBaAKn/HMKijjgxMkQYpfoQoVgCp8xjOroIwPTpAEKX6FKlQAqvAZz6yCMj44QRKk+BWqUAGowmc8swrK+OAESZDi11CaVVmvhwUJ1Ko9nZTWEvtjwroMRyddLSYU9XwFdk+X+o/MmglB9FQ2eqwyHJ3S+AerdS9OVvD6WmD3dGn/S/uft2pN6ESeyvYeVhmOTj/E+Au/YzcXE15EuIx2dHJxBksXSKbg82r5RX5giRK/jqg1lB2cssoYmCul/tP4p/0vTBiy9x6OJ+HcUSO6JOrglFXGFHCldPz9eMdfJLEHnSRoc7cR493AWveNCUtF0UZOKOyqXD6sSThr3TdGsHJfIdpwoahAV+XyClDGWveNUXAwT4Zow4WiAl2VyytAGWvdN0bBqX8KRfD7ahMUE7eE4Lkqlw8jKZy17hsj2LT/RaNl5ITguSqXDyMpnLXuGyPYn1/8NbFnDpC8eHQQyioTRtBwmfRsFJtQW9SXrE4s9sWfg1BWGbcA8Zn0DBObUFvUl6xOLKl//isrToSUVcYNGPGZ9AwTm1Bb1JesTixp/NP4p/3PGSHKKuMOGOJpxMjfilGLYpVRU5TxETIBBCjPSEKwsSSPb2FdHjAc95oAQmSU80um/m0CTONvIuB1jrT/peOPPtuk//9c8o+u2J2MGowLSRORhOlmV2/whIaoWmRL3XNYJvUvUbIxCaMecm60DO8XUXNULbKl7lmLECMoqwu9hpyLNrxfRM1RtciWumctQoygrC70GnIu2vB+ETVH1SJb6p61CDGCsrrQa8i5aMP7RdQcVYtsqXvWIsQIyupCryHnog3vF1FzVC2ype5ZixAjKKsLvYaciza8X0TNUbXIlrpnLUKMoKwu9BpyLtrwfhE1R9UiW+qetQgxgrK60GvIuWjD+0XUHFWLbKl71iLECMrqQq8h56IN7xdRs1HzVzEyi3lVOIUs65wdm7kgI/N0SHXz7xn0IMW+XgEHuNS/vISRyZQC48TSss7ZsaXxp2CYeKT9z+0zdmhxbCgu3pjUwalMOv4OvPHnrNi1nbVP+B3CzSbBFOCo5n45F1avWg1H/aI11KH/KK7pS2pXJhiEjhxxq2IM4iri/rUc9W5Nj1pEmdS/CYUTjzBwPkeQ2XPmwGeffQrr1q+HBvUPguOP/xUcfvjhhIvHf8vWLTDp35NgyeJFUFRSCmefeSa0aHFkkFQcf9/A/zfpf+HFp+2f9v/gL+9rt1Pm5zP+7Xqdh4W9eScEgUZN4dgJLRqoyZOnwLRPP4UmTZpA7Vo14bDDDje0bE45U07qFepUFrD/mX/OIFwDH+ECJfQmnFCLdM/W4tqVV0bwjsKwVuYzHweK/xGjRsKD9w+Fz7/4HFq3bg39+veH3pddRnfo338plsDcOXPhErLNmDEDSoqLYcyYMdCt24UaDSkhlOPkH9bi2pVXRko4CsNamc98HCjx17tUxt5fNP7yrXF6/zY+afvTGAh2YuxgiHYgeUajeKlJGelkASX9kiVL4JXxL8OCBYvglJNPhmZHHAH16tWFqlWrQjlO8MF/fk5rC+rSKpWROkkR/BhATcrE/TsjWl0oypSTwgH1SUIZAvyM/Y8cMQLuf+ABmDlzJtSoWRM6n3EGDB82HMrmlNWwMrNz506Y+M67cPbZZ1E/sUEdM3o0dPtTtxBn1EHApTcFomhFrYW+Yf9L218jl9CXyZaOPw4C/fM73oHY/8KtGGcQOd1DQqDUtQmvgQlQe/cWwWOPPgJTP/qIHt+Ph9NOPw0aN24COdllISs7S4oRDUsmvK42OEEIdQorG9pCTo0BYywxs6P4Du8/6pvlH9I/30ppSTHQX+60l0J92dxecLvatYnJzs6xc1fC/Y8cORLuu/9+mDNnNmApwFFH/wJef/U1qHdQfcjK4lrssZgm9FGEHTJksFHwf2xx7JjRcGE3m9g52RcXl0BJUTFxdBHkiy8lm/oC+y9bNlt1xUVFxpaVlQ2lpSVQXFJCSHvhOTShcB/irQZjo/rK0HWUzcmBLDMBWxzfCt9/ET05lC1bFrK5fiqjec1cJZ8s3ogJ9+8iHKSBu6fQFnKuXeuJmR1F6l8XUW7sJEJCXZvwoS3kxCbUWGJmR3GAxT9M7BIBps79GnVUVmzcwBoeuDt27IC9RXvNvusHH3wAlSpVggsuuAB+8YtfmPr9/wapVmiZaLVRWeFxQ1yj4JAh0IHsf8Xy5TBlyhQo2F5g25LvXLM58ZSkgXJdtcrV4Pen/h5q0mrcO4IgcmK/nxL79oLt1H55sH1HIQy5bQicd/55UL58eSpigZMnT6akPsRsx2RREt1Ae/JPPPEEbcXYxL5lyxaYOHEiTJgwARYuXAhb8rdA5WqV4ahWRxn/Z599NiX4bNi0aRM8/vgw4OR+RIsjYNHCRcB1L1+2nLb4GsM5550Lp55yKlSvUR2mTfsUHn30YWhN/emySy+D+vXrm1vgK9pK/t5++2148aUXocsFXeDEE0+EWrVqGbuADuT2D6fc8JY97gDv/+n903AP99ip6U2D2xxgBwApgq0Ir2OIwKMoiKJlHQVjSNycvxk2b9oMK1Yuh+kzpsOGDZvgvHPOpdXfUVAxL0+K2xoJ773EzzCLWrCtXyrI5D9MaIzgSwpXbraMUdvTAeL/35P+Dbfecqt5mc3Nx2E0y1XD8/2XoVVsFjRoeDA8+vAj9JKzReL9j6KtmPseGAp16tSG2rVrwxtvvAFndD4DHn7oYahcubJp3127d8Fzzz0Hgymxn9jhBJj2yTRYsmwpDKMtmz9d2A2WEf/ss8/BqKdGQiFNDE2aNIXivcWwZu1qKNy5A1qS7wEDBsCZnc+CdevWwZ8HXQefTptmFgK7aHFQLrcC8Ep97dq1RnfppZfCRRddRMl+GXTteiGU0Kp+3HPjoG37dpATrMwXLFwA1/35OvhwyocwduwY6NDhROprFcw9/hza3zYmnaWDS/sb1YHf/9P75+FOh3YAjUjYJ6xKeojpGZrMHfh+WV5FLaAV2MaNG8wg3V5QAK1atYY2v2wDtWrSaioyzToefae+Yb9+9wmQuoQ6YF/lSA7rwL8dK3UJdWrxVY7ksA7cY+fPnw+vvvoqbNmylcIaNi8nNduyYLYuqlevAV0v7AoH0VdMSfHn7RVesR9+xOHQ6shW8PyLL0DR7r3wxptvwCGNDoGytC3CK/Bhw4bB+PHj4W9//SvcdffdMG/ePBg+fDh06dIV3n7rTbj+hhtg8aJFcDNNNq1atTSrc5YnTHgDPpn2CZx37vnw9/vuNQuA/vSCllf2RzRvTnpaABx1FJTPLQcvv/QKvPn2W3Bs2/ZwzcBroC69uxl03SAz2QwdOhTOOeccmoDqwO7du83TSvfu3aFBg4PhySeGQyt68ZuV5W4BBuGSWAp1ouirHMlhHfi3Y6UuoU4tvsqRHNaBfztW6hLq1OKrHMlhHfi3Y6UuoU4tvsqRHNaBfztW6hLq1OKrHMlhHfi3Y6UuoU4tvsqRHNaBx1nz8jR24v+uUuRIUBmE0TtGZZVB4ZgWFxcjbc3gqNFP4ZNPPomjR4/Gt956C2lF5jiUEvtWfRv/UmOCBzERTbAmqH6s/nft2o1r16zGZcuX43L6t2zZMksDmXXLV67ANWvW4N69e537Ftbe7IgRI5ASK3bp0gVHPDkCe/bshbRSx5defBG3bt1qwK+/NgHP6PQH7NixI9KEgm2PaYvlc3OR9tixqKjItPXFPS/Gyy+/HNeuW2fanwuuouu77bbbMC8vD3938slYsG2buc4zO3fGKlUqY8+LLzbXLFf02r9exeOOOx47dOiAzz37LG7atBFpQsG8ipXw4ot64BdffGGgK1aswLvvuYf0FfDGG2/E1atXa2u6Tejy4iOkCdYElcEbvWNUVpnUfxDYMCKJIywMv0Zs36o0/hQBE1QnsgFLK3bm6PEsWDEnTQiiE8rTg/BCV6xYDkuXLtOZg9eJWfQ/NBu6QeX89or3WsyBZp+Uv5MupT3fdm2PgSaHHkpmflTkWmURSS/KqBbZUghLW7v1z1reOBYrX9/+/UsNfP/8LpDr+rH4P/LII6Fly5Z0Rfa6+M7svRqV8q7OWsC839i4aSO9rCwhXBiXMhR/09YMpIDyi0X+aqlcudzE9rcr9gdov7sF9Ox5EW2rLIerr7qK+J7wl+uvh3p168LDjzxCL0rHwgkn/BooUcMpp5wCs2fPhmHDh0G3rt1gy9Z8WEW/b6CJAKpVqwKFhTtpz74A+PomTnwXnn9+HLRpcwxMeP01wm6FfrQtM+/LL+Ey+nRy0KBB5pb4HufPnwfXXDMQ8jdvhr59+8IFXbrQHvxC6ERf6uRVzIP/+7874fTTT6fv7j+Du+66CybTO4YXxj0P7dq3hby8SqYeP4KBiiL0XfR/qS1O3RZyeUGm/tP4/+f5V3qTUGePPeh0hrgd0NVzMdcm1YB5rH755ZdI4SRZNxuVksCJJUAws7VgG+yhR2cerEtpL7YiDVALCFBcPihRhvITJ11O4BQG4ybI/8aj3UdmvMUYyqw4NBOK9c8P5Yxnlfm4g3kBGnxQiMv/l/z369cfrqIkKv7l8lTmS8tw8FYIb43wj4a0XCT+WWWyoBq9hOzR/U+U3GkrRoDO/Y+k79jvv/8+80OjgVcPhCL6CqXzmZ0oodeD0fTVS7Vq1eFu2nr5nL5dHzToL3DyKSdTYv89JfaZtBVjX54WFhbCIvrR0gfvT4ZZs2bSu5aVsJ72y7dtK4CCwu3U/rugzdFt4PUJr1Py3wb96b5XrV4JV1xxpUnucl0rV6w039GvWbMK+l7ZFy6myaWAJohLLrmEPrV8B26++Rb6CudCeO+99+H66wdBjRo14Z2J70AN2m6y/xUtG6ygZU213P6miY0psDj375VwCzqlLObrn91qUv9p/L+v/uckdr9zagcUNSncjsiJ0eRZslusU0JYQzllmlQsNdFnaHvNAvvV116DuXPnmj1X/mqmTZs2AYZ2hsmBW38W1VVKWdj8DIl4O8uzA1t/VrAaNRWwmrO3WazG/fMEwy8QGZZ8/Pf9N2zYEBo3bhReHl3s143/hNcnwDXXDoSVy1dQIyXff3aZbGjUuDE8/fQz9KVS69BPwHFsZI+dX64OopeRVWgiuPGG62H8K+Nh9OixsGfPLhg1ahTkUds98vCDtDKubFfss2bD8CeHQ9cLusIHk9+H2wYPocT+vvmSpi6t8lu2OhLaHNWGEvhq82K1TZujzb46r+oH0B77unXroc+VVwBtx+h1raLEfuWA/kBbTHAlJf2LL+4JtI0E48Y9C7fc+lc4qeOJ0JlewM6aNQse/+fj0LtPb7rmQVChYm6s/0mP1coTGL7/cNCR8A3ibzoWFzaVJMRfAQmOA1XqP43/f9L/NLHHup+buRP6XwzvYaRbCg17697iInhi2BOwY2chJYbdcMwxbekx/gTTivZHTAG2lBM7JVjO7pzkSc21ycH+zbfLpHT11s54fxvIBImxvESnhG+2JZwBpvdjgFTLf9l/Nq2os2mrJNOh15sAWLduLcyaOZu+QtlOVntD4f2Tiu+f4pCXVxGOPfY48wOyWH0Uc07a99EPlFrQi8zrrrsOGtEL05dffoW2RK6BKyjxrqOV97x58+F3v/ud+dyRV+d2K2YWrdifhI6UbEeNegruueceaHb44XDX/90FTZsdBnkV8mhyL6Kk/gytrm8wn8C+RS9GecVuEvv6dXBlnyvMqlxubyWt9Pv16wf0XgCuvJISe8+LTb9Yu3YddOrUybwcPe6448wnk/zdPftv1+4Y2m7KkSpsR+FAcIeRgATxSbp/XVmENSgXw6uFGXEgNDCKKFRxXIL7rG0rg/6exp9xkfo/8Nt/f+8pSkvDjfmQM68tvFPMFlHQj1jMy1L6WsK8NJs2bRoupZd69E2zVw8LbtHvyr9bpzg0ugSDq/op+qekSS8jC3Dbtq3mJSclTKT964AXug23FRRgcVGxhEOp3P+IkSOQfneAXenl6fTp03H3nr04Z84crFG9OjZv3hwbNKiPJ9OLz3Hjxpk220Y+2rVrh7kVcnHM6DGEnY20H461a9fBvv364ebNm7CkpMT4mTlzFva54grMLZ+LxxxzDG6ja+SXvJ07n4FtqQ5+ccuHxJ9finY+8yxs27Ytvch90tj4xC9o+/Tpg42bNMEmjRub66JPMpG+vefSigs5VVlrgsFViX8u5erDWiwXs0UUEdEUMroEg6tK/YfRCLlo9BPaJgKOiAd8/HnLwzmit+/KLh8USVBJiK2pFGdMn4Hjx7+C9GMX/Mc/7kPajzVJgr5pdvwKG63QlV3+6/tPHI3OZCWeLY36cGWX/3n4HzHiSftVTFdO7J+ZJMsT8R9OPx3pR02YnZWNvXr1Ml/DcEQ4Obdt1xZz6auY0WPG4OIli/D6v1yP9OMm7HBiB6TVPn7y8cf46r/+hQOuGoBNmzbFnJwcbNasGeZvyafEvpQSe2ds3659kNjDmNPLeTzzzDOxXVtK+pLYA/PTTz+Nv2zzS8wpm4PNWzTH22+/PWh2AoRVBI1GJG3/MBYeFw2WK7t8UChBJQG3JjonYdL4e1EPhWiwXNnl9x9/sxVDMLPtYR8Y+TmNj+Cx0Dy22We3iCV4kLQ2W8by/KORzz79DIpoD3Tul1/R987ZZr+4cpUq0L59ewt1zt+1f6fq8LL4anlbJ+FI/Se3/8iRo2AofcfevCVtxVw7CI6m3xzwd+LDhj0O995zL+ykF5+Drr0W+g+4CipUqAAF27aal6ezeCuEfqB0Fv2Fx7ffmQgPPfggLF++DA6j7Rj+1ejOwh20FVMCe/fsgZX0opQmBHj/vfcgp1x52ua5iv6aJG3F8AvSiy4OdjUQVq6gl6b9+5nfQPTtS1sxZLO9DelvFC2FgQOvhddf+xd0OPE35uscs70nbc3AtP3T/v8zGv92j92MEBkm1P5mINBYSM6DMlw8ykX4K4XVq1ZRQi+mH45MgHr160HFChWhxZEtoDX9GEmOWPXGtTnZwRoDSMnM1CviCfEyMTMrzE3bF6rf9v7ZkwlZzIF/DTHzj9T/e++/Z15qNji4AZxFLyYbN2kMtJUCX9HniMOfeJL26YGS99m0l/4b0278x8CGDB4MK5avhD59Lqck28H8mnTqR1Nh6odTzY+ZaGsBqtAfhTv22GOhSaNGZuKf99VX9IvTa+kLlpr0tc1Y2JqfD6eeeip0PKmjBi5/cz75HE4/utoCp5HtNx1D2949e6HXpZeYH2X9z/nn06Tzd/pip2rG/vtTif83HX8crAOp/6X3r91/v4zXp0kowwt8P3+bLBNU5MADtWtlkJWRvk/eATO/mAmcDPjvcnCdZ9CKrf5B9Ckdgfy/zSG1xF4ZaY1ct62dKdUWFJGSrOXDyhmMFmJAqX/35ZxE8YeLP/0JMMjflG9apErVylCevp3nhnGvyjaXXBtLzPOR3P78pMWIlfQbCv48dCmt3Ptc0ce8ZDXF5ESgtP3dSEuM/7P4c3htTUF9Uq3EXSjp0/j/sPGnFTt9/kEDx7RJhobJoJZmM/SjqVNh0qT3zE+9+dti9/DKs8CHzibWas4e0ML4nEEdAvbDeeVZ4CP1b+PgDk0vUIGZSAZ1CNgP55X/juLPTw47zR+aKwL6BTPwnxg+mr6HH0ifedLLWO+Kvg//noP9CKn/yHDjeKXjL+g1tneYs9dRwk6VQR0CEji7FcOGfZWmlZHZnybifkvt1sd/qndv0R76BDGLfmhUUU1htUmrA4X9x/6dmjw29S9j6MCK/8qVq8yPp1544QXzq9b69RvAgKv6Q6+evYK/PGm7Qdr+B2b7e4N8H8LPtf0TtmKCKJlkzrxOrV74woB5aiuwUY7E4kFpIpkmCv523bpOrGCf85Axpv5tBBLD99OPP/9Jglfom3r+LzXxX57kb9l/e9JvzR8n874HP0DvP2hB6eU+ZaMc6f1LJBz60+//+2t/3Yoxd52A9lVhQEzS9Y2xwIlZqAI8hSM4rGB9VSCJUqiAlVqDmIVGzIHoWB1WsL4qkEQpVMBKrUHMQiPmQHSsDitYXxVIohQqYKXWIGahEXMgOlaHFayvCiRRChWwUmsQs9CIORAdq8MK1lcFEhH+W/9rVq+BxUsW0w+t8qBJkybm78rz37+Rxz8pK1Tq9FcFjtVhBeurAkmUQgWs1BrELDRiDkTH6rCC9VWBJEqhAlZqDWIWGjEHomN1WMH6qkASpVABK7UGMQuNmAPRsTqsYH1VIIlSqICVWoOYhUbMgehYHVawviqQRClUwEqtQcxCI+ZAdKwOK1hfFUiiFCpgpbSfry9PBSRUQXHGQjID45aoJpSVE0Zo3K1qLCQzMG6JakJZOWGEqrc4YyGZgXFLVBPKygkjNO5WNRaSGRi3RDWhrJwwQtVbnLGQzMC4JaoJZeWEERp3qxoLyQyMW6KaUFZOGKHqLc5YSGZg3BLVhLJywgiNu1WNhWQGxi1RTSgrJ4xQ9RZnLCQzMG6JakJZOWGExt2qxkIyA+OWqCaUlRNGqHqLMxaSGRi3RDWhrJwwQuNuVWMhmYHGQl8WMHUOKSBqfpYjXvZMxGy1zkaNGIQ6VTqsWg2jUgKCbXyk/tP4U19I+58OBRl0/ugRSagdPdGzWg2jkgMTHVM+0vH3Uxx/ZfiXYfINt23I5LM0t28VrdCIlas2PwqIvLgjuIxT+1icXN6tLRkhWqFuCfKR+k/jn/Y/GhTp+HM/NnTXqQdq/jFfxXhpUQVl/GyZIAmS1/48joQqVACq8BnPrIIyPjhBEqT4FapQAajCZzyzCsr44ARJkOJXqEIFoAqf8cwqKOODEyRBil+hChWAKnzGM6ugjA9OkAQpfoUqVACq8BnPrIIyPjhBEqT4FapQAajCZzyzCsr44ARJkOJXqEIFoAqf8cwqKOODEyRBil+hChWAKnzGM6ugjA9OkAQpfoUqVACq8BnPrIIyPjhBEqT4FapQAajCZzyzCsr44ARJkOJXqEIFoAqf8cwqKOODEyRBil9Do1sxFiRQW4unk9IJDpJVYV2Go5Ou1hMKeL4Cu6dL/dvZMyF2ySobPbYZjk5p/O0GQ1K8vL4WADxd2v/S/pfhTxMk9adg1BnTDzn+wu/YQ9f2+mxvJl6ZKEJX5nLBsvdnK3DPfh2uxecdnLLKGKgryRgzOtfgV0rSPo0O2sEpq0zqPxLJNP7BEyrFJfiLFE5fclm/D7kWn3dwyipjoK6Uxj+Nv9khoZ4R7X+RxO6nQLcT+R2QJWvdNyYsFUUbOaGwq3L5sCbhrHXfGMHGr9aUSyjsqlw+rEk4a903RrCp/2i0jJwQPFfl8mEkhbPWfWMEm8Y/Gi0jJwTPVbl8GEnhrHXfGMGm8Y9Gy8gJwXNVLh9GUjhrzYTRxJ4JwE1iXzw4CGWVEW8BzaRns9iE2iK+FFRjSOo/jT//5MjpIcoq43YY4jPpGSY2obaoL1mdWNL4p/H/qfU/Suz2b8VoV9YeroyaooyPkAQcoDwjCcHGrjw+hnV5wHDc6QAMkVHOL5n6j775D7fG0vin/Y++akj6sCE6znRQKRMddir7iHT8/ZjG3/8D6SOcxMYc3eIAAAAASUVORK5CYII=;" parent="1" vertex="1">
                    <mxGeometry x="120" y="480" width="257.93" height="80" as="geometry"/>
                </mxCell>
                <mxCell id="6fLWlz1K73UYWE2r200s-6" value="" style="edgeStyle=entityRelationEdgeStyle;endArrow=ERzeroToMany;startArrow=ERone;endFill=1;startFill=0;exitX=1;exitY=0.5;exitDx=0;exitDy=0;" parent="1" source="C-vyLk0tnHw3VtMMgP7b-24" target="6fLWlz1K73UYWE2r200s-12" edge="1">
                    <mxGeometry width="100" height="100" relative="1" as="geometry">
                        <mxPoint x="350" y="355" as="sourcePoint"/>
                        <mxPoint x="420" y="810" as="targetPoint"/>
                    </mxGeometry>
                </mxCell>
                <mxCell id="6fLWlz1K73UYWE2r200s-7" value="" style="edgeStyle=entityRelationEdgeStyle;endArrow=ERone;startArrow=ERmany;endFill=0;startFill=0;exitX=1;exitY=0.5;exitDx=0;exitDy=0;entryX=0;entryY=0.5;entryDx=0;entryDy=0;" parent="1" source="6fLWlz1K73UYWE2r200s-15" target="6fLWlz1K73UYWE2r200s-19" edge="1">
                    <mxGeometry width="100" height="100" relative="1" as="geometry">
                        <mxPoint x="380" y="370" as="sourcePoint"/>
                        <mxPoint x="440" y="395" as="targetPoint"/>
                    </mxGeometry>
                </mxCell>
                <mxCell id="6fLWlz1K73UYWE2r200s-8" value="Stock" style="shape=table;startSize=30;container=1;collapsible=1;childLayout=tableLayout;fixedRows=1;rowLines=0;fontStyle=1;align=center;resizeLast=1;" parent="1" vertex="1">
                    <mxGeometry x="430" y="360" width="250" height="160" as="geometry"/>
                </mxCell>
                <mxCell id="6fLWlz1K73UYWE2r200s-9" value="" style="shape=partialRectangle;collapsible=0;dropTarget=0;pointerEvents=0;fillColor=none;points=[[0,0.5],[1,0.5]];portConstraint=eastwest;top=0;left=0;right=0;bottom=1;" parent="6fLWlz1K73UYWE2r200s-8" vertex="1">
                    <mxGeometry y="30" width="250" height="30" as="geometry"/>
                </mxCell>
                <mxCell id="6fLWlz1K73UYWE2r200s-10" value="PK" style="shape=partialRectangle;overflow=hidden;connectable=0;fillColor=none;top=0;left=0;bottom=0;right=0;fontStyle=1;" parent="6fLWlz1K73UYWE2r200s-9" vertex="1">
                    <mxGeometry width="30" height="30" as="geometry">
                        <mxRectangle width="30" height="30" as="alternateBounds"/>
                    </mxGeometry>
                </mxCell>
                <mxCell id="6fLWlz1K73UYWE2r200s-11" value="id int NOT NULL " style="shape=partialRectangle;overflow=hidden;connectable=0;fillColor=none;top=0;left=0;bottom=0;right=0;align=left;spacingLeft=6;fontStyle=5;" parent="6fLWlz1K73UYWE2r200s-9" vertex="1">
                    <mxGeometry x="30" width="220" height="30" as="geometry">
                        <mxRectangle width="220" height="30" as="alternateBounds"/>
                    </mxGeometry>
                </mxCell>
                <mxCell id="6fLWlz1K73UYWE2r200s-12" value="" style="shape=partialRectangle;collapsible=0;dropTarget=0;pointerEvents=0;fillColor=none;points=[[0,0.5],[1,0.5]];portConstraint=eastwest;top=0;left=0;right=0;bottom=0;" parent="6fLWlz1K73UYWE2r200s-8" vertex="1">
                    <mxGeometry y="60" width="250" height="30" as="geometry"/>
                </mxCell>
                <mxCell id="6fLWlz1K73UYWE2r200s-13" value="FK1" style="shape=partialRectangle;overflow=hidden;connectable=0;fillColor=none;top=0;left=0;bottom=0;right=0;" parent="6fLWlz1K73UYWE2r200s-12" vertex="1">
                    <mxGeometry width="30" height="30" as="geometry">
                        <mxRectangle width="30" height="30" as="alternateBounds"/>
                    </mxGeometry>
                </mxCell>
                <mxCell id="6fLWlz1K73UYWE2r200s-14" value="produit_id int NOT NULL" style="shape=partialRectangle;overflow=hidden;connectable=0;fillColor=none;top=0;left=0;bottom=0;right=0;align=left;spacingLeft=6;" parent="6fLWlz1K73UYWE2r200s-12" vertex="1">
                    <mxGeometry x="30" width="220" height="30" as="geometry">
                        <mxRectangle width="220" height="30" as="alternateBounds"/>
                    </mxGeometry>
                </mxCell>
                <mxCell id="6fLWlz1K73UYWE2r200s-15" value="" style="shape=partialRectangle;collapsible=0;dropTarget=0;pointerEvents=0;fillColor=none;points=[[0,0.5],[1,0.5]];portConstraint=eastwest;top=0;left=0;right=0;bottom=0;" parent="6fLWlz1K73UYWE2r200s-8" vertex="1">
                    <mxGeometry y="90" width="250" height="30" as="geometry"/>
                </mxCell>
                <mxCell id="6fLWlz1K73UYWE2r200s-16" value="" style="shape=partialRectangle;overflow=hidden;connectable=0;fillColor=none;top=0;left=0;bottom=0;right=0;" parent="6fLWlz1K73UYWE2r200s-15" vertex="1">
                    <mxGeometry width="30" height="30" as="geometry">
                        <mxRectangle width="30" height="30" as="alternateBounds"/>
                    </mxGeometry>
                </mxCell>
                <mxCell id="6fLWlz1K73UYWE2r200s-17" value="qg_id int NOT NULL" style="shape=partialRectangle;overflow=hidden;connectable=0;fillColor=none;top=0;left=0;bottom=0;right=0;align=left;spacingLeft=6;" parent="6fLWlz1K73UYWE2r200s-15" vertex="1">
                    <mxGeometry x="30" width="220" height="30" as="geometry">
                        <mxRectangle width="220" height="30" as="alternateBounds"/>
                    </mxGeometry>
                </mxCell>
                <mxCell id="6fLWlz1K73UYWE2r200s-56" style="shape=partialRectangle;collapsible=0;dropTarget=0;pointerEvents=0;fillColor=none;points=[[0,0.5],[1,0.5]];portConstraint=eastwest;top=0;left=0;right=0;bottom=0;" parent="6fLWlz1K73UYWE2r200s-8" vertex="1">
                    <mxGeometry y="120" width="250" height="30" as="geometry"/>
                </mxCell>
                <mxCell id="6fLWlz1K73UYWE2r200s-57" style="shape=partialRectangle;overflow=hidden;connectable=0;fillColor=none;top=0;left=0;bottom=0;right=0;" parent="6fLWlz1K73UYWE2r200s-56" vertex="1">
                    <mxGeometry width="30" height="30" as="geometry">
                        <mxRectangle width="30" height="30" as="alternateBounds"/>
                    </mxGeometry>
                </mxCell>
                <mxCell id="6fLWlz1K73UYWE2r200s-58" value="quantite int NOT NULL" style="shape=partialRectangle;overflow=hidden;connectable=0;fillColor=none;top=0;left=0;bottom=0;right=0;align=left;spacingLeft=6;" parent="6fLWlz1K73UYWE2r200s-56" vertex="1">
                    <mxGeometry x="30" width="220" height="30" as="geometry">
                        <mxRectangle width="220" height="30" as="alternateBounds"/>
                    </mxGeometry>
                </mxCell>
                <mxCell id="6fLWlz1K73UYWE2r200s-18" value="QG" style="shape=table;startSize=30;container=1;collapsible=1;childLayout=tableLayout;fixedRows=1;rowLines=0;fontStyle=1;align=center;resizeLast=1;" parent="1" vertex="1">
                    <mxGeometry x="760" y="360" width="250" height="130" as="geometry">
                        <mxRectangle x="760" y="120" width="100" height="30" as="alternateBounds"/>
                    </mxGeometry>
                </mxCell>
                <mxCell id="6fLWlz1K73UYWE2r200s-19" value="" style="shape=partialRectangle;collapsible=0;dropTarget=0;pointerEvents=0;fillColor=none;points=[[0,0.5],[1,0.5]];portConstraint=eastwest;top=0;left=0;right=0;bottom=1;" parent="6fLWlz1K73UYWE2r200s-18" vertex="1">
                    <mxGeometry y="30" width="250" height="30" as="geometry"/>
                </mxCell>
                <mxCell id="6fLWlz1K73UYWE2r200s-20" value="PK" style="shape=partialRectangle;overflow=hidden;connectable=0;fillColor=none;top=0;left=0;bottom=0;right=0;fontStyle=1;" parent="6fLWlz1K73UYWE2r200s-19" vertex="1">
                    <mxGeometry width="30" height="30" as="geometry">
                        <mxRectangle width="30" height="30" as="alternateBounds"/>
                    </mxGeometry>
                </mxCell>
                <mxCell id="6fLWlz1K73UYWE2r200s-21" value="id int NOT NULL " style="shape=partialRectangle;overflow=hidden;connectable=0;fillColor=none;top=0;left=0;bottom=0;right=0;align=left;spacingLeft=6;fontStyle=5;" parent="6fLWlz1K73UYWE2r200s-19" vertex="1">
                    <mxGeometry x="30" width="220" height="30" as="geometry">
                        <mxRectangle width="220" height="30" as="alternateBounds"/>
                    </mxGeometry>
                </mxCell>
                <mxCell id="6fLWlz1K73UYWE2r200s-22" value="" style="shape=partialRectangle;collapsible=0;dropTarget=0;pointerEvents=0;fillColor=none;points=[[0,0.5],[1,0.5]];portConstraint=eastwest;top=0;left=0;right=0;bottom=0;" parent="6fLWlz1K73UYWE2r200s-18" vertex="1">
                    <mxGeometry y="60" width="250" height="30" as="geometry"/>
                </mxCell>
                <mxCell id="6fLWlz1K73UYWE2r200s-23" value="" style="shape=partialRectangle;overflow=hidden;connectable=0;fillColor=none;top=0;left=0;bottom=0;right=0;" parent="6fLWlz1K73UYWE2r200s-22" vertex="1">
                    <mxGeometry width="30" height="30" as="geometry">
                        <mxRectangle width="30" height="30" as="alternateBounds"/>
                    </mxGeometry>
                </mxCell>
                <mxCell id="6fLWlz1K73UYWE2r200s-24" value="nom string NOT NULL" style="shape=partialRectangle;overflow=hidden;connectable=0;fillColor=none;top=0;left=0;bottom=0;right=0;align=left;spacingLeft=6;" parent="6fLWlz1K73UYWE2r200s-22" vertex="1">
                    <mxGeometry x="30" width="220" height="30" as="geometry">
                        <mxRectangle width="220" height="30" as="alternateBounds"/>
                    </mxGeometry>
                </mxCell>
                <mxCell id="6fLWlz1K73UYWE2r200s-25" value="" style="shape=partialRectangle;collapsible=0;dropTarget=0;pointerEvents=0;fillColor=none;points=[[0,0.5],[1,0.5]];portConstraint=eastwest;top=0;left=0;right=0;bottom=0;" parent="6fLWlz1K73UYWE2r200s-18" vertex="1">
                    <mxGeometry y="90" width="250" height="30" as="geometry"/>
                </mxCell>
                <mxCell id="6fLWlz1K73UYWE2r200s-26" value="" style="shape=partialRectangle;overflow=hidden;connectable=0;fillColor=none;top=0;left=0;bottom=0;right=0;" parent="6fLWlz1K73UYWE2r200s-25" vertex="1">
                    <mxGeometry width="30" height="30" as="geometry">
                        <mxRectangle width="30" height="30" as="alternateBounds"/>
                    </mxGeometry>
                </mxCell>
                <mxCell id="6fLWlz1K73UYWE2r200s-27" value="adresse string NOT NULL" style="shape=partialRectangle;overflow=hidden;connectable=0;fillColor=none;top=0;left=0;bottom=0;right=0;align=left;spacingLeft=6;" parent="6fLWlz1K73UYWE2r200s-25" vertex="1">
                    <mxGeometry x="30" width="220" height="30" as="geometry">
                        <mxRectangle width="220" height="30" as="alternateBounds"/>
                    </mxGeometry>
                </mxCell>
                <mxCell id="6fLWlz1K73UYWE2r200s-35" value="Livreur" style="shape=table;startSize=30;container=1;collapsible=1;childLayout=tableLayout;fixedRows=1;rowLines=0;fontStyle=1;align=center;resizeLast=1;" parent="1" vertex="1">
                    <mxGeometry x="1080" y="360" width="250" height="140" as="geometry">
                        <mxRectangle x="760" y="120" width="100" height="30" as="alternateBounds"/>
                    </mxGeometry>
                </mxCell>
                <mxCell id="6fLWlz1K73UYWE2r200s-36" value="" style="shape=partialRectangle;collapsible=0;dropTarget=0;pointerEvents=0;fillColor=none;points=[[0,0.5],[1,0.5]];portConstraint=eastwest;top=0;left=0;right=0;bottom=1;" parent="6fLWlz1K73UYWE2r200s-35" vertex="1">
                    <mxGeometry y="30" width="250" height="30" as="geometry"/>
                </mxCell>
                <mxCell id="6fLWlz1K73UYWE2r200s-37" value="PK" style="shape=partialRectangle;overflow=hidden;connectable=0;fillColor=none;top=0;left=0;bottom=0;right=0;fontStyle=1;" parent="6fLWlz1K73UYWE2r200s-36" vertex="1">
                    <mxGeometry width="30" height="30" as="geometry">
                        <mxRectangle width="30" height="30" as="alternateBounds"/>
                    </mxGeometry>
                </mxCell>
                <mxCell id="6fLWlz1K73UYWE2r200s-38" value="id int NOT NULL " style="shape=partialRectangle;overflow=hidden;connectable=0;fillColor=none;top=0;left=0;bottom=0;right=0;align=left;spacingLeft=6;fontStyle=5;" parent="6fLWlz1K73UYWE2r200s-36" vertex="1">
                    <mxGeometry x="30" width="220" height="30" as="geometry">
                        <mxRectangle width="220" height="30" as="alternateBounds"/>
                    </mxGeometry>
                </mxCell>
                <mxCell id="6fLWlz1K73UYWE2r200s-39" value="" style="shape=partialRectangle;collapsible=0;dropTarget=0;pointerEvents=0;fillColor=none;points=[[0,0.5],[1,0.5]];portConstraint=eastwest;top=0;left=0;right=0;bottom=0;" parent="6fLWlz1K73UYWE2r200s-35" vertex="1">
                    <mxGeometry y="60" width="250" height="30" as="geometry"/>
                </mxCell>
                <mxCell id="6fLWlz1K73UYWE2r200s-40" value="" style="shape=partialRectangle;overflow=hidden;connectable=0;fillColor=none;top=0;left=0;bottom=0;right=0;" parent="6fLWlz1K73UYWE2r200s-39" vertex="1">
                    <mxGeometry width="30" height="30" as="geometry">
                        <mxRectangle width="30" height="30" as="alternateBounds"/>
                    </mxGeometry>
                </mxCell>
                <mxCell id="6fLWlz1K73UYWE2r200s-41" value="nom text NOT NULL" style="shape=partialRectangle;overflow=hidden;connectable=0;fillColor=none;top=0;left=0;bottom=0;right=0;align=left;spacingLeft=6;" parent="6fLWlz1K73UYWE2r200s-39" vertex="1">
                    <mxGeometry x="30" width="220" height="30" as="geometry">
                        <mxRectangle width="220" height="30" as="alternateBounds"/>
                    </mxGeometry>
                </mxCell>
                <mxCell id="6fLWlz1K73UYWE2r200s-42" value="" style="shape=partialRectangle;collapsible=0;dropTarget=0;pointerEvents=0;fillColor=none;points=[[0,0.5],[1,0.5]];portConstraint=eastwest;top=0;left=0;right=0;bottom=0;" parent="6fLWlz1K73UYWE2r200s-35" vertex="1">
                    <mxGeometry y="90" width="250" height="30" as="geometry"/>
                </mxCell>
                <mxCell id="6fLWlz1K73UYWE2r200s-43" value="FK1" style="shape=partialRectangle;overflow=hidden;connectable=0;fillColor=none;top=0;left=0;bottom=0;right=0;" parent="6fLWlz1K73UYWE2r200s-42" vertex="1">
                    <mxGeometry width="30" height="30" as="geometry">
                        <mxRectangle width="30" height="30" as="alternateBounds"/>
                    </mxGeometry>
                </mxCell>
                <mxCell id="6fLWlz1K73UYWE2r200s-44" value="QG_id int NOT NULL" style="shape=partialRectangle;overflow=hidden;connectable=0;fillColor=none;top=0;left=0;bottom=0;right=0;align=left;spacingLeft=6;" parent="6fLWlz1K73UYWE2r200s-42" vertex="1">
                    <mxGeometry x="30" width="220" height="30" as="geometry">
                        <mxRectangle width="220" height="30" as="alternateBounds"/>
                    </mxGeometry>
                </mxCell>
                <mxCell id="6fLWlz1K73UYWE2r200s-48" value="FK2" style="shape=partialRectangle;overflow=hidden;connectable=0;fillColor=none;top=0;left=0;bottom=0;right=0;" parent="1" vertex="1">
                    <mxGeometry x="450" y="210" width="30" height="30" as="geometry"/>
                </mxCell>
                <mxCell id="6fLWlz1K73UYWE2r200s-49" value="FK2" style="shape=partialRectangle;overflow=hidden;connectable=0;fillColor=none;top=0;left=0;bottom=0;right=0;" parent="1" vertex="1">
                    <mxGeometry x="440" y="400" width="30" height="30" as="geometry"/>
                </mxCell>
                <mxCell id="6fLWlz1K73UYWE2r200s-71" value="Etat" style="shape=table;startSize=30;container=1;collapsible=1;childLayout=tableLayout;fixedRows=1;rowLines=0;fontStyle=1;align=center;resizeLast=1;" parent="1" vertex="1">
                    <mxGeometry x="1080" y="120" width="150" height="150" as="geometry">
                        <mxRectangle x="760" y="120" width="100" height="30" as="alternateBounds"/>
                    </mxGeometry>
                </mxCell>
                <mxCell id="6fLWlz1K73UYWE2r200s-75" value="" style="shape=partialRectangle;collapsible=0;dropTarget=0;pointerEvents=0;fillColor=none;points=[[0,0.5],[1,0.5]];portConstraint=eastwest;top=0;left=0;right=0;bottom=0;" parent="6fLWlz1K73UYWE2r200s-71" vertex="1">
                    <mxGeometry y="30" width="150" height="30" as="geometry"/>
                </mxCell>
                <mxCell id="6fLWlz1K73UYWE2r200s-76" value="en cuisine" style="shape=partialRectangle;overflow=hidden;connectable=0;fillColor=none;top=0;left=0;bottom=0;right=0;" parent="6fLWlz1K73UYWE2r200s-75" vertex="1">
                    <mxGeometry width="150" height="30" as="geometry">
                        <mxRectangle width="150" height="30" as="alternateBounds"/>
                    </mxGeometry>
                </mxCell>
                <mxCell id="6fLWlz1K73UYWE2r200s-87" style="shape=partialRectangle;collapsible=0;dropTarget=0;pointerEvents=0;fillColor=none;points=[[0,0.5],[1,0.5]];portConstraint=eastwest;top=0;left=0;right=0;bottom=0;" parent="6fLWlz1K73UYWE2r200s-71" vertex="1">
                    <mxGeometry y="60" width="150" height="30" as="geometry"/>
                </mxCell>
                <mxCell id="6fLWlz1K73UYWE2r200s-88" value="en cours de livraison" style="shape=partialRectangle;overflow=hidden;connectable=0;fillColor=none;top=0;left=0;bottom=0;right=0;" parent="6fLWlz1K73UYWE2r200s-87" vertex="1">
                    <mxGeometry width="150" height="30" as="geometry">
                        <mxRectangle width="150" height="30" as="alternateBounds"/>
                    </mxGeometry>
                </mxCell>
                <mxCell id="6fLWlz1K73UYWE2r200s-85" style="shape=partialRectangle;collapsible=0;dropTarget=0;pointerEvents=0;fillColor=none;points=[[0,0.5],[1,0.5]];portConstraint=eastwest;top=0;left=0;right=0;bottom=0;" parent="6fLWlz1K73UYWE2r200s-71" vertex="1">
                    <mxGeometry y="90" width="150" height="30" as="geometry"/>
                </mxCell>
                <mxCell id="6fLWlz1K73UYWE2r200s-86" value="livrée" style="shape=partialRectangle;overflow=hidden;connectable=0;fillColor=none;top=0;left=0;bottom=0;right=0;" parent="6fLWlz1K73UYWE2r200s-85" vertex="1">
                    <mxGeometry width="150" height="30" as="geometry">
                        <mxRectangle width="150" height="30" as="alternateBounds"/>
                    </mxGeometry>
                </mxCell>
                <mxCell id="6fLWlz1K73UYWE2r200s-83" style="shape=partialRectangle;collapsible=0;dropTarget=0;pointerEvents=0;fillColor=none;points=[[0,0.5],[1,0.5]];portConstraint=eastwest;top=0;left=0;right=0;bottom=0;" parent="6fLWlz1K73UYWE2r200s-71" vertex="1">
                    <mxGeometry y="120" width="150" height="30" as="geometry"/>
                </mxCell>
                <mxCell id="6fLWlz1K73UYWE2r200s-84" value="en attente de payement" style="shape=partialRectangle;overflow=hidden;connectable=0;fillColor=none;top=0;left=0;bottom=0;right=0;" parent="6fLWlz1K73UYWE2r200s-83" vertex="1">
                    <mxGeometry width="150" height="30" as="geometry">
                        <mxRectangle width="150" height="30" as="alternateBounds"/>
                    </mxGeometry>
                </mxCell>
                <mxCell id="6fLWlz1K73UYWE2r200s-89" value="" style="edgeStyle=entityRelationEdgeStyle;endArrow=ERone;startArrow=ERone;endFill=0;startFill=0;exitX=1;exitY=0.5;exitDx=0;exitDy=0;" parent="1" source="6fLWlz1K73UYWE2r200s-59" target="6fLWlz1K73UYWE2r200s-71" edge="1">
                    <mxGeometry width="100" height="100" relative="1" as="geometry">
                        <mxPoint x="710" y="235" as="sourcePoint"/>
                        <mxPoint x="770" y="175" as="targetPoint"/>
                    </mxGeometry>
                </mxCell>
                <mxCell id="6fLWlz1K73UYWE2r200s-95" value="" style="edgeStyle=entityRelationEdgeStyle;endArrow=ERone;startArrow=ERmany;endFill=0;startFill=0;exitX=0;exitY=0.5;exitDx=0;exitDy=0;entryX=1;entryY=0.5;entryDx=0;entryDy=0;" parent="1" source="6fLWlz1K73UYWE2r200s-42" target="6fLWlz1K73UYWE2r200s-19" edge="1">
                    <mxGeometry width="100" height="100" relative="1" as="geometry">
                        <mxPoint x="1020" y="295" as="sourcePoint"/>
                        <mxPoint x="1100" y="295" as="targetPoint"/>
                    </mxGeometry>
                </mxCell>
                <mxCell id="6fLWlz1K73UYWE2r200s-96" value="PK = primary key&#10;&#10;FK = foreign key" style="shape=partialRectangle;overflow=hidden;connectable=0;fillColor=none;top=0;left=0;bottom=0;right=0;fontStyle=1;align=left;" parent="1" vertex="1">
                    <mxGeometry x="120" y="420" width="260" height="60" as="geometry">
                        <mxRectangle width="30" height="30" as="alternateBounds"/>
                    </mxGeometry>
                </mxCell>
                <mxCell id="2" value="" style="edgeStyle=entityRelationEdgeStyle;endArrow=ERone;startArrow=ERmany;endFill=0;startFill=0;exitX=1;exitY=0.5;exitDx=0;exitDy=0;entryX=1;entryY=0.5;entryDx=0;entryDy=0;" edge="1" parent="1" source="6fLWlz1K73UYWE2r200s-90" target="6fLWlz1K73UYWE2r200s-19">
                    <mxGeometry width="100" height="100" relative="1" as="geometry">
                        <mxPoint x="1090" y="395" as="sourcePoint"/>
                        <mxPoint x="1010" y="425" as="targetPoint"/>
                    </mxGeometry>
                </mxCell>
            </root>
        </mxGraphModel>
    </diagram>
</mxfile>